<?xml version="1.0" encoding="UTF-8" standalone="no"?>
<svg width="44px" height="44px" viewBox="0 0 44 44" version="1.1" xmlns="http://www.w3.org/2000/svg" xmlns:xlink="http://www.w3.org/1999/xlink">
    <!-- Generator: Sketch 40.2 (33826) - http://www.bohemiancoding.com/sketch -->
    <title>search</title>
    <desc>Created with Sketch.</desc>
    <defs></defs>
    <g id="Page-1" stroke="none" stroke-width="1" fill="none" fill-rule="evenodd">
        <g id="search">
            <g id="Skisser-sidemaler">
                <g id="Områdeforside-juridisk">
                    <g id="Søkeboks">
                        <rect id="Søkeboks-bg-kvadratisk" fill="#333333" x="0" y="0" width="44" height="44" rx="22"></rect>
                        <path d="M22.3217531,27.9988623 C21.0263284,28.6979009 19.530334,29.096765 17.9369454,29.096765 C13.0012067,29.096765 9,25.2695238 9,20.5483825 C9,17.7033317 10.4530383,15.1829007 12.688,13.6290254 C14.161784,12.6043651 15.975578,12 17.9369454,12 C22.872684,12 26.8738907,15.8272412 26.8738907,20.5483825 C26.8738907,22.2483841 26.3550959,23.832483 25.4606837,25.1637268 L26.0297729,25.6843852 L30.4405535,29.7197982 L32,31.1465321 L28.8811071,34 L27.3216606,32.5732661 L22.91088,28.5378531 L22.3217531,27.9988623 L22.3217531,27.9988623 Z M17.9369454,25.677412 C20.8983885,25.677412 23.2991126,23.3810673 23.2991126,20.5483825 C23.2991126,17.7156977 20.8983885,15.419353 17.9369454,15.419353 C16.760125,15.419353 15.6718485,15.7819721 14.7875781,16.3967683 C13.4466011,17.3290934 12.5747781,18.841352 12.5747781,20.5483825 C12.5747781,23.3810673 14.9755022,25.677412 17.9369454,25.677412 L17.9369454,25.677412 Z" id="Ikon-tegnet" fill="#F5F5F5" transform="translate(20.500000, 23.000000) scale(-1, 1) translate(-20.500000, -23.000000) "></path>
                    </g>
                </g>
            </g>
        </g>
    </g>
</svg>