<?xml version="1.0" encoding="utf-8"?>
<!-- Generator: Adobe Illustrator 14.0.0, SVG Export Plug-In . SVG Version: 6.00 Build 43363)  -->
<!DOCTYPE svg PUBLIC "-//W3C//DTD SVG 1.1//EN" "http://www.w3.org/Graphics/SVG/1.1/DTD/svg11.dtd">
<svg version="1.1" id="UiBlogo_grayscale" xmlns="http://www.w3.org/2000/svg" xmlns:xlink="http://www.w3.org/1999/xlink" x="0px"
	 y="0px" width="439.37px" height="99.213px" viewBox="0 0 439.37 99.213" enable-background="new 0 0 439.37 99.213"
	 xml:space="preserve">
<g>
	<path d="M20.524,42.078c-0.641-0.113-1.833-0.297-2.173-0.174c-0.137,0.049-0.241,0.223-0.307,0.479l-0.065,0.254
		c-0.083,0.051-0.214,0.006-0.244-0.064c0.089-0.389,0.165-0.77,0.235-1.172c0.074-0.434,0.112-0.715,0.156-1.09
		c0.066-0.074,0.197-0.041,0.252,0.021l-0.023,0.252c-0.023,0.262,0.035,0.475,0.159,0.561c0.315,0.203,1.505,0.408,2.083,0.51
		l1.168,0.201c0.898,0.154,1.825,0.465,2.345,1.15c0.409,0.529,0.546,1.34,0.413,2.104c-0.123,0.715-0.381,1.402-0.902,1.834
		c-0.55,0.469-1.349,0.598-2.578,0.387l-2.439-0.424c-1.074-0.188-1.254-0.195-1.409,0.395l-0.065,0.256
		c-0.052,0.055-0.224,0.004-0.245-0.063c0.11-0.516,0.181-0.865,0.252-1.277c0.073-0.424,0.122-0.768,0.189-1.277
		c0.041-0.057,0.221-0.047,0.252,0.021l-0.022,0.254c-0.053,0.607,0.12,0.66,1.194,0.846l2.232,0.385
		c1.664,0.289,2.849-0.041,3.122-1.621c0.259-1.498-0.82-2.271-2.392-2.543L20.524,42.078z"/>
	<path d="M27.051,33.734c0.275,0.152,1.364,0.762,1.618,0.866c0.044,0.048,0.06,0.129,0.003,0.231
		c-0.217,0.021-0.686,0.107-2.037,0.397l-3.604,0.775c-0.422,0.088-1.521,0.293-1.83,0.371l-0.01,0.02
		c0.09,0.098,0.295,0.223,0.569,0.375l1.996,1.117c0.431,0.242,1.626,0.896,1.987,0.895c0.131,0.002,0.289-0.15,0.436-0.369
		l0.186-0.27c0.104-0.014,0.209,0.057,0.219,0.145c-0.248,0.402-0.438,0.717-0.627,1.059c-0.215,0.383-0.343,0.635-0.504,0.967
		c-0.082,0.037-0.215-0.023-0.239-0.109l0.11-0.262c0.091-0.227,0.117-0.406,0.043-0.506c-0.259-0.314-1.381-0.928-1.82-1.174
		L20.9,36.783c-0.256-0.145-0.453-0.242-0.771-0.168c-0.199,0.057-0.387,0.24-0.536,0.445l-0.105,0.146
		c-0.086,0.023-0.224-0.053-0.219-0.146c0.243-0.369,0.514-0.855,0.606-1.02c0.081-0.145,0.158-0.307,0.207-0.436
		c0.569,0.076,2.381-0.328,2.889-0.44l1.494-0.332c1.059-0.237,1.822-0.399,2.502-0.583l0.01-0.02
		c-0.025-0.062-0.172-0.143-0.363-0.25l-1.961-1.096c-0.43-0.24-1.625-0.896-1.996-0.876c-0.113,0.01-0.25,0.126-0.5,0.467
		l-0.105,0.146c-0.092,0.033-0.232-0.06-0.219-0.148c0.254-0.409,0.436-0.717,0.631-1.064c0.22-0.393,0.344-0.636,0.499-0.957
		c0.087-0.048,0.215,0.023,0.239,0.109l-0.054,0.138c-0.118,0.319-0.146,0.543-0.094,0.619c0.243,0.341,1.388,0.956,1.81,1.191
		L27.051,33.734z"/>
	<path d="M27.02,28.41c-0.801-0.771-0.943-0.881-1.41-0.472l-0.197,0.174c-0.074,0.015-0.195-0.131-0.174-0.197
		c0.379-0.362,0.634-0.612,0.939-0.929c0.291-0.303,0.531-0.567,0.881-0.958c0.066-0.023,0.217,0.093,0.203,0.167l-0.168,0.202
		c-0.391,0.481-0.277,0.622,0.522,1.394l2.687,2.592c0.8,0.774,0.92,0.859,1.402,0.464l0.205-0.166
		c0.074-0.015,0.195,0.131,0.174,0.197c-0.379,0.364-0.635,0.612-0.926,0.915c-0.305,0.316-0.546,0.581-0.895,0.972
		c-0.066,0.023-0.201-0.076-0.203-0.167l0.16-0.209c0.377-0.496,0.285-0.615-0.516-1.387L27.02,28.41z"/>
	<path d="M30.74,24.313c-0.518-0.369-0.768-0.472-1.177-0.276l-0.171,0.084c-0.096-0.015-0.165-0.144-0.122-0.233
		c0.269-0.144,0.558-0.314,0.939-0.556c0.39-0.245,0.694-0.45,1.056-0.702c0.086-0.005,0.188,0.119,0.158,0.209l-0.121,0.103
		c-0.31,0.258-0.348,0.355-0.312,0.432c0.073,0.078,0.526,0.462,1.227,0.962c1.058,0.771,2.108,1.536,3.189,2.268
		c-0.095-0.76-0.297-1.908-0.39-2.506c-0.123-0.767-0.338-2.031-0.428-2.508c-0.046-0.231-0.1-0.334-0.139-0.396
		c-0.039-0.064-0.172-0.079-0.504,0.081l-0.172,0.083c-0.096-0.014-0.162-0.157-0.121-0.233c0.259-0.138,0.602-0.341,0.938-0.555
		c0.293-0.184,0.563-0.367,0.844-0.569c0.085-0.002,0.175,0.141,0.157,0.212l-0.254,0.186c-0.202,0.152-0.269,0.341-0.266,0.601
		c0.014,0.574,0.121,1.51,0.292,2.668l0.209,1.394c0.159,1.04,0.392,2.331,0.536,2.896c-0.016,0.036-0.045,0.067-0.08,0.089
		c-0.045,0.028-0.095,0.048-0.15,0.057c-0.332-0.31-0.766-0.646-1.152-0.922L30.74,24.313z"/>
	<path d="M39.504,20.248c-0.297-1.048-0.361-1.196-0.976-1.099l-0.167,0.026c-0.072-0.023-0.104-0.21-0.052-0.257
		c0.44-0.103,0.786-0.19,1.199-0.308l1.897-0.536c0.646-0.184,1.241-0.35,1.354-0.417c0.109,0.155,0.375,0.865,0.541,1.299
		c-0.022,0.071-0.179,0.138-0.246,0.09c-0.285-0.431-0.477-0.757-1.038-0.74c-0.226,0.01-0.552,0.091-0.995,0.217l-0.728,0.205
		c-0.303,0.085-0.297,0.104-0.188,0.488l0.57,2.02c0.08,0.281,0.11,0.273,0.414,0.188l0.585-0.167
		c0.423-0.119,0.73-0.229,0.84-0.303c0.11-0.074,0.164-0.154,0.143-0.422l-0.036-0.436c0.033-0.076,0.205-0.124,0.266-0.064
		c0.068,0.241,0.139,0.646,0.248,1.029c0.103,0.364,0.252,0.736,0.314,0.957c-0.021,0.084-0.192,0.132-0.26,0.086l-0.203-0.369
		c-0.091-0.169-0.205-0.3-0.421-0.295c-0.152,0-0.397,0.06-0.792,0.171l-0.584,0.165c-0.303,0.085-0.33,0.104-0.257,0.366
		l0.403,1.422c0.15,0.536,0.277,0.87,0.488,0.996c0.154,0.088,0.398,0.138,1.286-0.112c0.776-0.219,1.059-0.343,1.249-0.517
		c0.153-0.152,0.326-0.584,0.439-1.182c0.057-0.071,0.207-0.081,0.273,0c0.029,0.372-0.004,1.22-0.059,1.529
		c-0.914,0.238-1.814,0.481-2.713,0.736l-0.908,0.257c-0.434,0.122-0.774,0.229-1.363,0.417c-0.07-0.012-0.136-0.169-0.092-0.245
		l0.324-0.127c0.561-0.212,0.568-0.378,0.27-1.436L39.504,20.248z"/>
	<path d="M47.773,18.611c0.008-0.995-0.023-1.174-0.453-1.231l-0.334-0.043c-0.074-0.053-0.072-0.222,0.012-0.262
		c0.588-0.05,1.312-0.076,2.34-0.069c0.649,0.005,1.268,0.063,1.749,0.326c0.501,0.265,0.865,0.741,0.86,1.475
		c-0.007,0.996-0.797,1.536-1.322,1.741c-0.053,0.064-0.001,0.169,0.051,0.253c0.83,1.359,1.381,2.2,2.09,2.803
		c0.178,0.16,0.438,0.276,0.721,0.301c0.053,0.021,0.063,0.104,0.01,0.145c-0.094,0.031-0.262,0.053-0.461,0.051
		c-0.893-0.005-1.426-0.271-2.162-1.337c-0.271-0.388-0.696-1.114-1.018-1.589c-0.156-0.233-0.324-0.338-0.742-0.34
		c-0.473-0.005-0.494,0.007-0.494,0.226l-0.01,1.322c-0.007,1.101,0.014,1.227,0.621,1.314l0.22,0.034
		c0.063,0.052,0.04,0.23-0.022,0.262c-0.473-0.024-0.828-0.038-1.248-0.041c-0.441-0.002-0.818,0.005-1.312,0.024
		c-0.063-0.033-0.083-0.19-0.019-0.262l0.262-0.031c0.609-0.069,0.631-0.205,0.639-1.306L47.773,18.611z M48.625,20.117
		c-0.002,0.188-0.002,0.305,0.029,0.345c0.031,0.033,0.188,0.055,0.723,0.058c0.377,0.002,0.775-0.036,1.082-0.265
		c0.285-0.219,0.528-0.584,0.533-1.298c0.006-0.829-0.504-1.617-1.668-1.627c-0.65-0.003-0.682,0.038-0.684,0.333L48.625,20.117z"/>
	<path d="M57.083,25.242c-0.841-0.264-1.288-0.69-1.443-0.862c-0.051-0.257,0.044-1.007,0.173-1.483
		c0.071-0.055,0.229-0.028,0.248,0.045c-0.011,0.558,0.09,1.668,1.25,2.032c0.84,0.267,1.424-0.155,1.613-0.755
		c0.139-0.438,0.204-0.958-0.377-1.658l-0.756-0.922c-0.395-0.485-0.795-1.241-0.535-2.061c0.299-0.95,1.283-1.486,2.582-1.076
		c0.311,0.098,0.651,0.271,0.89,0.424c0.117,0.081,0.251,0.146,0.331,0.172c0.014,0.269-0.072,0.857-0.205,1.276
		c-0.06,0.048-0.229,0.026-0.26-0.05c0.021-0.52-0.043-1.256-1.003-1.558c-0.98-0.31-1.396,0.273-1.542,0.733
		c-0.182,0.579,0.165,1.15,0.463,1.498l0.643,0.753c0.506,0.588,0.943,1.364,0.643,2.314C59.45,25.166,58.383,25.654,57.083,25.242z
		"/>
	<path d="M65.404,22.956c0.58-0.948,0.656-1.11,0.155-1.479l-0.213-0.154c-0.031-0.069,0.085-0.22,0.155-0.212
		c0.437,0.29,0.734,0.485,1.11,0.717c0.357,0.219,0.667,0.396,1.125,0.652c0.037,0.06-0.043,0.231-0.119,0.233l-0.233-0.119
		c-0.556-0.278-0.668-0.136-1.248,0.813l-1.95,3.182c-0.58,0.948-0.64,1.084-0.149,1.47l0.207,0.165
		c0.031,0.068-0.085,0.219-0.155,0.212c-0.437-0.291-0.735-0.486-1.093-0.705c-0.375-0.231-0.686-0.407-1.143-0.665
		c-0.038-0.06,0.032-0.212,0.119-0.233l0.239,0.109c0.565,0.263,0.661,0.148,1.241-0.8L65.404,22.956z"/>
	<path d="M69.871,31.428c-0.81,0.748-0.91,0.871-0.535,1.353l0.204,0.27c0.012,0.073-0.141,0.186-0.206,0.161
		c-0.391-0.454-0.626-0.722-0.91-1.031c-0.284-0.307-0.542-0.569-1.013-1.048c-0.021-0.069,0.098-0.205,0.193-0.179l0.279,0.255
		c0.443,0.405,0.595,0.336,1.403-0.412l3.443-3.182c0.238-0.22,0.247-0.227,0.033-0.458l-0.392-0.424
		c-0.307-0.331-0.713-0.74-1.068-0.77c-0.341-0.028-0.581,0.051-0.852,0.146c-0.104-0.019-0.164-0.164-0.131-0.25
		c0.459-0.197,1.06-0.538,1.417-0.77c0.037,0.01,0.138,0.103,0.136,0.148c-0.203,0.273,0.038,0.519,0.365,0.874l2.884,3.12
		c0.385,0.414,0.464,0.469,0.771,0.4c0.05,0.023,0.122,0.116,0.104,0.159c-0.394,0.207-1.068,0.731-1.277,0.967
		c-0.09,0.026-0.211-0.104-0.2-0.186c0.171-0.2,0.406-0.52,0.384-0.712c-0.032-0.298-0.242-0.648-0.633-1.072l-0.506-0.545
		c-0.213-0.231-0.213-0.217-0.469,0.017L69.871,31.428z"/>
	<path d="M75.416,38.486c0.177-0.166,0.188-0.217,0.052-0.502l-0.678-1.432c-0.112-0.234-0.168-0.277-0.398-0.25l-1.152,0.139
		c-0.493,0.063-0.78,0.117-0.885,0.168c-0.113,0.051-0.148,0.125-0.061,0.363l0.121,0.326c-0.016,0.088-0.168,0.16-0.246,0.094
		c-0.098-0.256-0.238-0.551-0.439-0.998c-0.148-0.314-0.33-0.646-0.459-0.898c0.01-0.074,0.152-0.164,0.227-0.131l0.177,0.301
		c0.128,0.219,0.33,0.375,0.735,0.348c0.517-0.037,1.258-0.064,2.508-0.17l3.017-0.248c0.405-0.027,0.61-0.057,0.749-0.156
		c0.176,0.195,0.422,0.275,0.594,0.32c0.027,0.059,0.04,0.131-0.018,0.182c-0.357,0.322-0.721,0.682-1.071,1.02l-3.193,3.105
		c-0.685,0.662-0.769,0.854-0.622,1.281l0.094,0.271c-0.018,0.09-0.176,0.141-0.237,0.113c-0.165-0.398-0.313-0.734-0.516-1.16
		c-0.216-0.455-0.406-0.809-0.546-1.076c0.002-0.094,0.149-0.178,0.229-0.131l0.159,0.258c0.112,0.191,0.231,0.299,0.327,0.254
		c0.104-0.051,0.252-0.18,0.444-0.363L75.416,38.486z M75.37,36.211c-0.254,0.025-0.26,0.041-0.134,0.305l0.554,1.168
		c0.13,0.273,0.178,0.273,0.392,0.068l1.302-1.246c0.191-0.184,0.407-0.391,0.494-0.5l-0.01-0.02
		c-0.061-0.006-0.333,0.008-0.666,0.039L75.37,36.211z"/>
	<path d="M74.776,45.629c-0.129-0.871,0.06-1.463,0.145-1.678c0.211-0.156,0.926-0.4,1.411-0.492
		c0.081,0.041,0.124,0.193,0.067,0.242c-0.506,0.234-1.46,0.811-1.281,2.014c0.129,0.871,0.762,1.213,1.385,1.121
		c0.457-0.068,0.952-0.236,1.327-1.066l0.497-1.08c0.266-0.57,0.768-1.26,1.619-1.385c0.984-0.146,1.896,0.504,2.098,1.852
		c0.047,0.322,0.04,0.705,0.008,0.984c-0.021,0.143-0.021,0.291-0.008,0.375c-0.236,0.127-0.803,0.309-1.238,0.373
		c-0.068-0.033-0.125-0.195-0.07-0.254c0.479-0.211,1.11-0.59,0.964-1.584c-0.151-1.018-0.857-1.137-1.335-1.066
		c-0.602,0.09-0.963,0.65-1.146,1.07l-0.396,0.908c-0.309,0.713-0.814,1.445-1.801,1.59C75.882,47.723,74.977,46.977,74.776,45.629z
		"/>
	<path d="M23.641,57.26c0.728-0.27,0.9-0.379,0.775-0.836L24.329,56.1c0.03-0.102,0.181-0.145,0.249-0.082
		c0.246,0.514,0.523,1.17,0.861,2.086c0.229,0.619,0.398,1.229,0.336,1.754c-0.049,0.498-0.323,0.971-0.953,1.203
		c-0.707,0.262-1.225-0.016-1.719-0.504c-0.098,0.035-0.098,0.125-0.078,0.24c0.099,0.566-0.102,1.535-1.154,1.926
		c-1.142,0.422-2.222-0.139-2.877-1.912c-0.105-0.283-0.254-0.775-0.407-1.191c-0.159-0.43-0.304-0.76-0.448-1.119
		c0.008-0.068,0.158-0.146,0.239-0.109l0.095,0.164c0.281,0.488,0.396,0.471,1.43,0.086L23.641,57.26z M20.348,59.395
		c-0.354,0.131-0.848,0.336-0.995,0.602c-0.157,0.271-0.097,0.586,0.013,0.879c0.323,0.877,0.965,1.4,1.947,1.037
		c0.777-0.289,1.537-1.018,0.959-2.58c-0.197-0.531-0.271-0.551-0.467-0.477L20.348,59.395z M22.631,58.551
		c-0.275,0.1-0.292,0.119-0.086,0.611c0.41,0.988,0.905,1.422,1.83,1.08c0.964-0.357,1.063-1.211,0.785-1.959
		c-0.08-0.213-0.154-0.354-0.227-0.428c-0.065-0.088-0.129-0.109-0.307-0.043L22.631,58.551z"/>
	<path d="M26.799,64.551c0.873-0.656,0.986-0.768,0.674-1.305L27.389,63.1c-0.005-0.076,0.158-0.174,0.222-0.143
		c0.254,0.373,0.46,0.666,0.718,1.01l1.184,1.576c0.403,0.537,0.774,1.031,0.875,1.113c-0.104,0.156-0.67,0.662-1.015,0.971
		c-0.075,0.006-0.192-0.115-0.174-0.195c0.3-0.42,0.536-0.719,0.317-1.234c-0.09-0.209-0.283-0.484-0.56-0.854l-0.453-0.604
		c-0.188-0.252-0.206-0.238-0.524,0l-1.678,1.262c-0.234,0.176-0.217,0.199-0.027,0.451l0.365,0.486
		c0.265,0.354,0.477,0.6,0.586,0.676c0.109,0.074,0.203,0.096,0.444-0.018l0.395-0.193c0.082,0.004,0.188,0.146,0.155,0.227
		c-0.201,0.15-0.554,0.361-0.873,0.6c-0.301,0.229-0.595,0.5-0.779,0.639c-0.084,0.012-0.191-0.131-0.172-0.213l0.27-0.318
		c0.127-0.148,0.209-0.301,0.125-0.5c-0.056-0.143-0.198-0.35-0.443-0.678l-0.365-0.488c-0.189-0.25-0.217-0.268-0.436-0.104
		l-1.182,0.885c-0.444,0.334-0.711,0.574-0.753,0.816c-0.024,0.176,0.015,0.42,0.569,1.158c0.484,0.646,0.701,0.865,0.932,0.98
		c0.197,0.088,0.66,0.094,1.261-0.016c0.086,0.027,0.149,0.162,0.099,0.254c-0.338,0.162-1.141,0.438-1.449,0.498
		c-0.551-0.768-1.102-1.521-1.662-2.266l-0.566-0.756c-0.271-0.361-0.494-0.641-0.883-1.121c-0.012-0.07,0.109-0.189,0.197-0.174
		l0.233,0.256c0.401,0.445,0.559,0.395,1.439-0.266L26.799,64.551z"/>
	<path d="M31.903,70.383c0.589-0.803,0.669-0.963,0.353-1.262l-0.246-0.23c-0.027-0.086,0.071-0.223,0.164-0.205
		c0.504,0.305,1.107,0.705,1.937,1.313c0.524,0.383,0.993,0.793,1.228,1.289c0.251,0.51,0.268,1.107-0.165,1.697
		c-0.589,0.805-1.546,0.781-2.093,0.641c-0.079,0.02-0.099,0.137-0.105,0.234c-0.123,1.586-0.17,2.592,0.053,3.496
		c0.051,0.23,0.193,0.479,0.41,0.664c0.029,0.049-0.012,0.121-0.078,0.125c-0.095-0.031-0.242-0.113-0.404-0.232
		c-0.719-0.525-0.995-1.053-0.971-2.348c0.01-0.475,0.09-1.313,0.107-1.885c0.008-0.277-0.064-0.461-0.403-0.709
		c-0.381-0.279-0.404-0.283-0.534-0.105l-0.781,1.064c-0.65,0.889-0.707,1.004-0.266,1.43l0.158,0.158
		c0.021,0.078-0.102,0.209-0.172,0.197c-0.367-0.295-0.649-0.516-0.988-0.762c-0.355-0.26-0.666-0.475-1.076-0.748
		c-0.032-0.064,0.044-0.203,0.139-0.225l0.229,0.129c0.534,0.299,0.632,0.201,1.282-0.686L31.903,70.383z M31.712,72.104
		c-0.111,0.152-0.181,0.246-0.179,0.297c0.006,0.043,0.121,0.152,0.553,0.471c0.305,0.223,0.65,0.424,1.032,0.418
		c0.358-0.012,0.771-0.164,1.192-0.74c0.488-0.67,0.539-1.607-0.4-2.293c-0.525-0.385-0.575-0.369-0.748-0.135L31.712,72.104z"/>
	<path d="M42.529,80.436c-0.131,0.398-0.148,0.656,0.008,0.785c0.02,0.041,0,0.102-0.05,0.117c-0.119-0.041-0.312-0.059-0.517-0.07
		c-0.574-0.035-1.332-0.148-1.87-0.324c-1.186-0.391-2.163-1.074-2.677-2.104c-0.402-0.797-0.463-1.688-0.176-2.563
		c0.277-0.85,0.838-1.613,1.672-2.068c0.896-0.479,2.037-0.623,3.541-0.131c0.568,0.186,1.061,0.469,1.217,0.564
		c0.176,0.1,0.463,0.271,0.589,0.291c-0.108,0.328-0.218,0.867-0.324,1.496c-0.056,0.068-0.239,0.021-0.278-0.061
		c0.073-1.166-0.563-1.75-1.58-2.084c-1.934-0.633-3.231,0.465-3.721,1.959c-0.628,1.914-0.135,3.74,1.869,4.398
		c0.617,0.203,1.029,0.193,1.193,0.059c0.073-0.051,0.182-0.215,0.286-0.535l0.132-0.398c0.273-0.836,0.264-0.906-0.332-1.178
		l-0.422-0.193c-0.066-0.066,0.002-0.242,0.082-0.25c0.282,0.113,0.827,0.305,1.415,0.498c0.389,0.125,0.73,0.229,1.066,0.316
		c0.057,0.063,0.017,0.215-0.071,0.252l-0.166-0.033c-0.436-0.088-0.537,0.189-0.703,0.699L42.529,80.436z"/>
	<path d="M47.831,76.814c0.003-1.09-0.019-1.248-0.638-1.322l-0.166-0.021c-0.063-0.043-0.043-0.23,0.021-0.262
		c0.45,0.021,0.807,0.033,1.236,0.033l1.973,0.006c0.67,0,1.289,0.002,1.416-0.029c0.063,0.18,0.123,0.934,0.164,1.395
		c-0.042,0.063-0.209,0.084-0.262,0.021c-0.156-0.494-0.25-0.861-0.795-0.998c-0.221-0.053-0.557-0.064-1.018-0.064l-0.756-0.004
		c-0.314,0-0.314,0.021-0.314,0.42l-0.005,2.098c-0.001,0.293,0.031,0.293,0.347,0.293l0.607,0.004c0.441,0,0.766-0.02,0.892-0.063
		c0.126-0.041,0.199-0.105,0.253-0.367l0.084-0.428c0.053-0.064,0.23-0.063,0.273,0.01c0,0.252-0.043,0.662-0.044,1.059
		c-0.001,0.379,0.04,0.777,0.04,1.008c-0.043,0.074-0.221,0.072-0.273,0.01l-0.094-0.41c-0.041-0.188-0.114-0.346-0.324-0.396
		c-0.146-0.043-0.398-0.057-0.807-0.057l-0.609-0.002c-0.314,0-0.346,0.01-0.346,0.283l-0.004,1.48
		c-0.001,0.555,0.03,0.912,0.197,1.09c0.126,0.127,0.346,0.24,1.27,0.244c0.807,0.002,1.111-0.039,1.342-0.156
		c0.189-0.104,0.474-0.469,0.746-1.014c0.074-0.053,0.221-0.021,0.264,0.074c-0.074,0.365-0.339,1.174-0.476,1.457
		c-0.944-0.023-1.877-0.035-2.811-0.039l-0.944-0.002c-0.45,0-0.807,0.01-1.426,0.029c-0.063-0.031-0.084-0.201-0.021-0.262
		l0.347-0.031c0.598-0.051,0.651-0.207,0.653-1.311L47.831,76.814z"/>
	<path d="M62.175,75.102c-0.167-0.451-0.642-1.662-0.607-2.078c0.011-0.094,0.178-0.246,0.474-0.412l0.131-0.07
		c0.037-0.08-0.015-0.219-0.111-0.24c-0.327,0.146-0.578,0.25-1.002,0.408c-0.373,0.141-0.711,0.254-1.17,0.402
		c-0.067,0.059-0.019,0.221,0.072,0.254l0.174-0.043c0.412-0.098,0.591-0.098,0.683-0.029c0.296,0.223,0.782,1.498,0.955,1.959
		l0.784,2.104c0.076,0.207,0.135,0.365,0.113,0.43l-0.019,0.006c-0.638-0.299-1.324-0.672-2.284-1.174L59.014,75.9
		c-0.46-0.242-2.103-1.107-2.486-1.537c-0.12,0.07-0.283,0.141-0.441,0.199c-0.176,0.066-0.697,0.262-1.121,0.385
		c-0.063,0.068-0.009,0.217,0.072,0.252l0.174-0.043c0.247-0.057,0.508-0.076,0.697,0.01c0.291,0.148,0.377,0.354,0.48,0.627
		l1.059,2.84c0.176,0.473,0.633,1.666,0.627,2.072c-0.01,0.125-0.145,0.244-0.359,0.359l-0.254,0.125
		c-0.037,0.082,0.023,0.217,0.111,0.242c0.336-0.15,0.598-0.258,1.01-0.412c0.364-0.137,0.712-0.254,1.162-0.398
		c0.051-0.076,0.016-0.197-0.072-0.254l-0.316,0.084c-0.252,0.072-0.471,0.086-0.57,0c-0.277-0.232-0.764-1.508-0.936-1.969
		l-0.798-2.141c-0.11-0.297-0.185-0.525-0.188-0.658l0.02-0.008c0.286,0.139,1.255,0.695,1.634,0.902l3.247,1.744
		c1.218,0.656,1.631,0.893,1.811,1.016c0.108-0.041,0.148-0.113,0.146-0.178c-0.123-0.244-0.56-1.414-0.67-1.709L62.175,75.102z"/>
	<path d="M70.411,74.871c-0.676,0.564-1.277,0.713-1.504,0.752c-0.245-0.098-0.826-0.58-1.158-0.945
		c-0.008-0.09,0.1-0.207,0.172-0.186c0.464,0.311,1.453,0.822,2.387,0.043c0.676-0.564,0.637-1.283,0.232-1.768
		c-0.295-0.352-0.697-0.688-1.602-0.574l-1.182,0.139c-0.624,0.072-1.474,0.002-2.026-0.658c-0.638-0.764-0.561-1.881,0.486-2.756
		c0.249-0.209,0.579-0.402,0.836-0.521c0.131-0.055,0.258-0.133,0.322-0.186c0.233,0.131,0.683,0.521,0.966,0.861
		c0.007,0.076-0.102,0.207-0.182,0.191c-0.428-0.299-1.082-0.641-1.854,0.006c-0.789,0.66-0.521,1.324-0.211,1.693
		c0.389,0.467,1.059,0.48,1.511,0.418l0.98-0.135c0.77-0.109,1.658-0.061,2.297,0.705C71.622,72.834,71.457,73.998,70.411,74.871z"
		/>
	<path d="M71.563,65.725c-0.906-0.643-1.064-0.729-1.465-0.254l-0.17,0.199c-0.07,0.025-0.213-0.1-0.201-0.17
		c0.32-0.414,0.537-0.699,0.791-1.057c0.244-0.344,0.441-0.639,0.729-1.078c0.063-0.035,0.229,0.059,0.227,0.135l-0.135,0.227
		c-0.316,0.533-0.184,0.654,0.723,1.299l3.043,2.164c0.904,0.646,1.037,0.713,1.455,0.25l0.178-0.195
		c0.07-0.025,0.213,0.1,0.201,0.17c-0.32,0.416-0.537,0.699-0.779,1.043c-0.255,0.357-0.453,0.654-0.74,1.094
		c-0.063,0.033-0.211-0.047-0.226-0.135l0.126-0.232c0.299-0.545,0.191-0.648-0.715-1.293L71.563,65.725z"/>
	<path d="M80.183,61.305c-0.311,0.824-0.762,1.25-0.939,1.395c-0.26,0.037-1.005-0.098-1.475-0.25
		c-0.049-0.076-0.014-0.23,0.061-0.248c0.555,0.041,1.668,0,2.096-1.141c0.31-0.824-0.08-1.428-0.668-1.65
		c-0.433-0.162-0.947-0.252-1.677,0.291l-0.959,0.705c-0.509,0.369-1.282,0.729-2.087,0.426c-0.934-0.35-1.416-1.359-0.938-2.637
		c0.113-0.305,0.306-0.635,0.47-0.865c0.087-0.113,0.159-0.244,0.188-0.322c0.268,0.002,0.852,0.119,1.264,0.273
		c0.044,0.063,0.016,0.229-0.063,0.258c-0.52-0.051-1.258-0.025-1.611,0.918c-0.36,0.963,0.201,1.408,0.652,1.578
		c0.57,0.213,1.158-0.104,1.521-0.383l0.786-0.602c0.615-0.475,1.414-0.869,2.346-0.52C80.229,58.936,80.661,60.027,80.183,61.305z"
		/>
	<path d="M49.607,14.173c-19.57,0-35.434,15.863-35.434,35.434c0,19.568,15.863,35.432,35.434,35.432
		c19.569,0,35.433-15.863,35.433-35.432C85.04,30.037,69.177,14.173,49.607,14.173z M49.607,83.973
		c-18.979,0-34.367-15.387-34.367-34.365c0-18.98,15.387-34.365,34.367-34.365c18.979,0,34.363,15.385,34.363,34.365
		C83.971,68.586,68.586,83.973,49.607,83.973z"/>
	<path d="M57.955,66.791c-0.705,0.539-1.176,1.346-1.477,2.014c0.65,0.471,2.175,1.158,4.738,1.596c1.121-0.623,1.996-1.189,3-1.971
		c-0.914-0.23-1.8-0.723-2.355-1.039C60.73,66.744,59.328,65.742,57.955,66.791z"/>
	<path d="M41.408,62.086c-0.867-0.238-1.334-0.229-2.622,0.189c-2.234,0.727-5.677,4.576-5.677,4.576
		c1.034,0.988,2.161,1.881,3.361,2.672c0.957-1.248,3.537-4.129,5.907-4.129c1.298,0,1.968,0.545,3.049,1.205
		c0.086-0.135,0.184-0.27,0.288-0.408C43.771,65.229,41.408,62.086,41.408,62.086z"/>
	<path d="M48.949,65.457c-1.051,0.139-1.819,1.037-2.329,1.916c2.001,1.354,3.778,2.953,6.384,3.729
		c2.029,0.604,2.809,0.832,4.878,0.865c0.915-0.34,1.798-0.742,2.658-1.184c-1.276-0.154-2.958-0.777-4.401-1.449
		C53.795,68.244,51.091,65.178,48.949,65.457z"/>
	<path d="M42.84,66.672c-2.975,0-4.151,2.488-5.121,3.602c3.504,2.021,7.553,3.197,11.889,3.197c2.279,0,4.475-0.34,6.564-0.936
		c-1.337-0.08-2.961-0.422-4.426-0.998C48.479,70.248,44.972,66.672,42.84,66.672z"/>
	<path d="M64.064,64.646c-1.977-2.521-3.537-2.988-4.299-2.797c-0.762,0.189-0.591,0.768-1.506,1.848
		c-0.833,0.984-2.74,2.072-3.112,2.34c0.308,0.326,0.733,0.813,0.841,0.928c0.945-0.875,2.152-1.707,3.34-1.707
		c2.119,0,2.715,1.678,5.516,2.68c0.598-0.486,1.18-0.994,1.723-1.543C66.566,66.395,65.232,66.137,64.064,64.646z"/>
	<path d="M59.441,44.082c-0.07-0.105,0.006-0.287-0.086-0.387c-0.088-0.43-0.269-0.818-0.262-1.291
		c-0.059-0.279,0.234-0.408,0.408-0.531c0.11-0.262,0.102-0.561-0.024-0.814c-0.089-0.42-0.675-0.492-0.675-0.951
		c-0.018-0.348-0.247-0.6-0.186-0.98c-0.154-0.506-0.149-1.057-0.188-1.594c-0.136-0.582-0.124-1.168-0.194-1.781
		c-0.097-0.725-0.192-1.447-0.36-2.132c-0.086-0.62-0.289-1.191-0.601-1.708c-0.048-0.384-0.427-0.677-0.232-1.105
		c0.342-0.477,0.623-0.995,0.813-1.543c0.168-0.317,0.142-0.708,0.221-1.061c-0.025-0.303,0.077-0.617-0.027-0.889
		c-0.053-0.043-0.104,0.013-0.14,0.034c-0.149,0.502-0.698,0.712-1.065,1.019c-0.551,0.231-1.242,0.141-1.863,0.213
		c-0.414-0.026-0.744,0.369-1.152,0.131c-0.204-0.15-0.443-0.21-0.654-0.329c-0.482-0.031-0.971,0.007-1.408-0.033
		c-0.696,0.036-1.228-0.354-1.923-0.319c-0.86-0.033-1.603,0.402-2.503,0.326c-0.799-0.205-1.582,0.101-2.225,0.432
		c-0.246-0.046-0.496-0.187-0.756-0.231c-0.697-0.273-1.558,0.21-2.146-0.343c-0.266-0.288-0.461-0.614-0.452-1.008
		c-0.108,0.063-0.164,0.205-0.19,0.324c-0.154,0.278-0.279,0.593-0.318,0.929c-0.077,0.424,0.039,0.882,0.134,1.284
		c0.065,0.717,0.564,1.281,0.454,2.041c-0.123,0.343-0.276,0.682-0.377,1.041c-0.293,0.35-0.227,0.836-0.309,1.263
		c-0.266,0.8-0.064,1.625-0.024,2.46c-0.298,0.957-0.437,1.969-0.547,2.996c-0.085,0.67-0.039,1.393-0.304,1.996
		c-0.359,0.357-0.667,0.725-0.555,1.252c0.038,0.275,0.186,0.492,0.318,0.719c0.074,0.539,0.053,1.059,0.018,1.592
		c0.043,0.438-0.405,0.57-0.477,0.941c-0.092,0.367,0.174,0.609,0.404,0.848c0.141,0.234,0.076,0.561,0.15,0.824
		c0.064,0.674,0.195,1.336,0.26,1.986c0.178,0.975,0.275,1.994,0.481,2.928c0.219,1.15,0.49,2.277,0.805,3.381
		c0.351,0.795,0.538,1.664,0.846,2.479c0.22,0.674,0.616,1.262,0.61,2.035c0.035,0.086,0.04,0.158,0.057,0.238
		c0.041,0.467-0.357,0.838-0.319,1.326c0,0,1.462,2.553,3.194,3.662c0.705-0.795,1.691-1.521,2.959-1.502
		c2.096,0.031,4.016,2.148,6.039,3.654c0.144-0.16,0.303-0.33,0.473-0.504c-0.662-0.936-3.559-4.289-5.998-4.678
		c0,0,0.188-0.482-0.038-0.705c-0.186-0.266-0.162-0.471-0.238-0.781c-0.012-0.146-0.071-0.352,0.038-0.473
		c0.365,0.078,0.524,0.473,0.695,0.75c0.026,0.016,0.057,0.025,0.084,0.021c0.028-0.006,0.055-0.021,0.071-0.059
		c0.049-0.363,0.45-0.59,0.727-0.762c0.058-0.031,0.147-0.012,0.171,0.063c0.064,0.398-0.031,0.912,0.26,1.229
		c0.094,0.125-0.021,0.246-0.086,0.344c-0.03,0.254-0.244,0.24-0.244,0.24c1.813,0.854,2.811,1.906,3.836,3.123
		c0.684-0.473,3.154-2.063,3.121-3.719c-0.012-0.547-0.298-0.48-0.432-0.773c-0.229-0.193-0.4-0.449-0.533-0.703
		c-0.267-0.533-0.479-1.127-0.371-1.789c0.186-0.48,0.205-1.029,0.414-1.502c0.27-0.898,0.472-1.832,0.748-2.729
		c0.326-1.24,0.66-2.475,0.828-3.775c0.18-0.428,0.165-0.924,0.256-1.387c0.178-0.441,0.088-0.99,0.199-1.459
		c0.057-0.365,0-0.77,0.16-1.086c0.055-0.182-0.012-0.408,0.096-0.566c-0.039-0.289,0.273-0.238,0.34-0.484
		c0.242-0.088,0.256-0.357,0.362-0.545C60.061,44.73,59.682,44.434,59.441,44.082z M58.264,40.578
		c0.161,0.08,0.411,0.072,0.463,0.275c0.242,0.076,0.198,0.342,0.348,0.488c0.01,0.129,0.007,0.281-0.105,0.336
		c-0.361,0.049-0.7-0.191-0.92-0.449C57.965,40.998,58.164,40.771,58.264,40.578z M56.172,45.453
		c-0.049,0.607-0.015,1.25-0.088,1.848c-0.066,0.068-0.003,0.191-0.037,0.273c-0.118,0.615-0.024,1.256-0.14,1.871l-0.076,0.004
		c-0.227-0.252-0.692-0.352-0.681-0.75c0.256-1.039,0.229-2.211,0.302-3.299c0.131-0.898,0.103-1.855,0.046-2.768
		c0.021-0.027,0.012-0.076,0.058-0.08c0.282,0.092,0.412,0.383,0.659,0.541C56.246,43.893,56.109,44.641,56.172,45.453z
		 M42.514,37.59c-0.273-0.008-0.275-0.332-0.355-0.518c-0.073-0.119-0.076-0.264-0.074-0.414c0.096-0.102,0.138-0.186,0.135-0.32
		c-0.101-0.074-0.273-0.021-0.309-0.189c0.001-0.219-0.068-0.498,0.156-0.609c0.23-0.119,0.55-0.045,0.757-0.209
		c0.028-0.041-0.019-0.101-0.063-0.098c-0.281-0.015-0.488,0.112-0.729,0.167c-0.092-0.043-0.08-0.135-0.119-0.203
		c-0.005-0.657-0.107-1.281,0.133-1.848c-0.041-0.119-0.084-0.27,0.02-0.365c0.264-0.052,0.427,0.353,0.68,0.253V33.2
		c-0.201-0.176-0.352-0.383-0.617-0.414c-0.143-0.2-0.045-0.46,0.01-0.665c0.059-0.076,0.107-0.186,0.223-0.121
		c0.217,0.1,0.318,0.278,0.541,0.386c0.061-0.048,0.094-0.124,0.07-0.186c-0.212-0.271-0.751-0.346-0.514-0.793
		c0.047-0.16,0.139-0.382,0.305-0.424c0.213,0.062,0.324,0.307,0.52,0.431l0.051-0.031c-0.172-0.169-0.268-0.386-0.216-0.638
		c0.141-0.124,0.274,0.066,0.405,0.116l0.213,0.055c0.207,0.114,0.469,0.236,0.477,0.515c0.174,0.253,0.227,0.553,0.469,0.771
		c0.066,0.174,0.205,0.274,0.301,0.438c-0.066,0.069-0.164,0.074-0.248,0.036c-0.239-0.15-0.34-0.427-0.504-0.634
		c-0.061-0.028-0.09,0.05-0.111,0.078c0.076,0.227,0.128,0.465,0.293,0.65l0.004,0.157c-0.346,0.033-0.65-0.273-0.863-0.548
		c-0.047-0.035-0.115-0.064-0.175-0.023c-0.097,0.055-0.019,0.159-0.007,0.233c0.165,0.26,0.312,0.588,0.625,0.722
		c0.063,0.05,0.096,0.162,0.038,0.233c-0.04,0.159-0.194,0.104-0.3,0.076c-0.194-0.174-0.42-0.357-0.592-0.526l-0.098,0.002
		c-0.019,0.155,0.152,0.253,0.223,0.379c0.16,0.27,0.645,0.27,0.534,0.65c-0.036,0.069-0.018,0.167-0.106,0.2
		c-0.51-0.069-1.195-0.253-1.614,0.162c-0.013,0.055,0.027,0.121,0.087,0.119c0.461-0.031,0.893,0.033,1.256,0.271
		c0.078,0.081,0.172,0.184,0.137,0.298c-0.073,0.048-0.18,0.035-0.254,0.083c-0.146,0.135-0.318,0.207-0.473,0.342
		c0,0.027,0.008,0.059,0.039,0.072c0.232-0.09,0.455-0.209,0.694-0.309c0.082-0.018,0.158,0.02,0.191,0.094
		c-0.005,0.121-0.14,0.133-0.222,0.195c-0.175,0.211-0.511,0.348-0.518,0.627l0.076-0.002c0.331-0.047,0.483-0.527,0.85-0.439
		c0.053,0.049,0.125,0.146,0.059,0.217c-0.431,0.262-0.998,0.514-1.057,1.09c0.009,0.039-0.012,0.084,0.019,0.105
		c0.122,0.004,0.109-0.133,0.184-0.195c0.354-0.299,0.684-0.639,1.151-0.67c0.045,0.014,0.105,0.021,0.146,0.072
		c-0.007,0.24-0.352,0.381-0.352,0.639c-0.055,0.189-0.116,0.381-0.21,0.564c0.01,0.047,0.07,0.059,0.1,0.027
		c0.217-0.348,0.406-0.844,0.832-0.969c-0.004,0.121,0.13,0.025,0.185,0.076c0.228,0.041,0.458,0.131,0.644,0.27
		c-0.039,0.477-0.219,1.057,0.029,1.48c0.087-0.078,0.008-0.221,0.051-0.318c0.02-0.357,0.238-0.637,0.279-0.986
		c0.035-0.105,0.156-0.131,0.248-0.104c0.19,0.078,0.197,0.311,0.382,0.404c0.146-0.148-0.042-0.355,0.028-0.547
		c0.064-0.115,0.225-0.104,0.338-0.068c0.047,0.035,0.101,0.047,0.162,0.041c0.057-0.063,0.04-0.156,0.037-0.236
		c0.243-0.188,0.322-0.586,0.656-0.506l0.072,0.082c-0.009,0.236-0.031,0.469-0.078,0.691c-0.092-0.006-0.142-0.201-0.261-0.123
		c-0.088,0.082-0.048,0.184-0.007,0.275c0.104,0.207,0.193,0.424,0.307,0.623c0.009,0.063,0.072,0.143,0.006,0.197
		c-0.258,0.018-0.371-0.252-0.512-0.4c-0.093-0.063-0.157,0.035-0.17,0.113c-0.051,0.34,0.184,0.598,0.439,0.803
		c0.099-0.006,0.16,0.055,0.23,0.121c-0.027,0.121-0.138,0.207-0.021,0.316l0.128,0.18c-0.141,0.123-0.326-0.012-0.479-0.055
		c-0.346-0.215-0.644-0.57-0.717-0.969c-0.023-0.047-0.092-0.059-0.129-0.025c-0.113,0.26,0.031,0.52,0.15,0.727
		c0.17,0.117,0.35,0.301,0.303,0.521c-0.059,0.086-0.193,0.127-0.3,0.09c-0.286-0.238-0.312-0.594-0.345-0.947
		c-0.039-0.014-0.078-0.053-0.115-0.012c-0.063,0.154-0.057,0.357-0.053,0.523c-0.04,0.15,0.057,0.363-0.061,0.486
		c-0.178,0.102-0.43,0.02-0.623,0.094c-0.238-0.092-0.217-0.387-0.225-0.629c-0.039-0.068-0.105-0.012-0.143,0.018
		c-0.223,0.123-0.18,0.596-0.546,0.451c-0.231-0.139-0.491-0.229-0.671-0.457c-0.122-0.283,0.189-0.445,0.189-0.693
		c0.078-0.207,0.323-0.35,0.362-0.572c-0.146-0.078-0.255,0.115-0.372,0.201c-0.195,0.277-0.361,0.586-0.488,0.875
		c-0.027,0.076-0.104,0.117-0.187,0.105c-0.342-0.301-0.997-0.469-0.894-1.049c0.073-0.105,0.138-0.213,0.18-0.338
		C42.68,37.342,42.633,37.549,42.514,37.59z M49.517,38.664c0.038,0.029,0.066,0.029,0.112,0.01c0.113-0.25,0.083-0.561,0.119-0.848
		c0.047-0.691,0.123-1.375,0.226-2.049c0.05-0.094,0.028-0.25,0.167-0.262c0.205,0.045,0.455,0.068,0.553,0.285
		c0.08,0.92,0.002,1.857-0.253,2.691c-0.124,0.42-0.409,0.736-0.624,1.123c-0.117,0.131-0.147,0.365-0.359,0.395
		c-0.598-0.844-0.977-1.793-1.008-2.896c0.01-0.406-0.248-0.959,0.105-1.264c0.262-0.098,0.474-0.363,0.77-0.34l0.039,0.113
		C49.461,36.615,49.199,37.689,49.517,38.664z M52.116,41.551c-0.499-0.248-0.96-0.734-1.015-1.291
		c0.029-0.063,0.105-0.064,0.145-0.043l0.498,0.469c0.361,0.232,0.838,0.467,1.014,0.895c0.029,0.143,0.057,0.346-0.068,0.434
		c-0.167,0.207-0.406,0.32-0.68,0.26c-0.502-0.061-0.959-0.453-1.193-0.908c-0.084-0.338-0.096-0.707,0.039-1.021
		c0.166-0.006,0.073,0.188,0.152,0.266c0.246,0.418,0.587,0.959,1.098,1.086C52.156,41.65,52.147,41.604,52.116,41.551z
		 M51.899,36.865c-0.103,0.104-0.213,0.203-0.341,0.254c-0.065-0.172,0.059-0.352,0.146-0.504c0.006-0.045,0.042-0.086,0.024-0.143
		c-0.07-0.076-0.227-0.025-0.215-0.17c-0.018-0.072,0.018-0.137,0.045-0.189l0.16-0.006c0.248,0.213,0.528,0.461,0.77,0.682
		c0.021,0.217,0.012,0.408-0.088,0.607c-0.016,0.234-0.178,0.412-0.238,0.627c0.024,0.053,0.085,0.064,0.128,0.033
		c0.227-0.293,0.33-0.645,0.579-0.918c0.277-0.061,0.598,0.021,0.891-0.039c0.215,0.113,0.074,0.418,0.213,0.58
		c0.043,0.145-0.012,0.342,0.119,0.43c0.195-0.029,0.151-0.27,0.216-0.4c0.075-0.268,0.03-0.477,0.007-0.758
		c-0.047-0.049-0.01-0.111-0.004-0.172c0.064-0.064,0.177-0.098,0.254-0.037c0.171,0.1,0.32,0.352,0.498,0.477
		c0.053-0.049,0.027-0.139,0.01-0.189c-0.035-0.225-0.268-0.371-0.319-0.58c0.005-0.084,0.101-0.133,0.171-0.088
		c0.229,0.082,0.146,0.357,0.333,0.488c0.083-0.027,0.04-0.146,0.024-0.199c-0.083-0.201-0.18-0.395-0.195-0.627
		c0.052-0.107,0.152-0.02,0.229-0.021c0.262,0.119,0.535,0.223,0.775,0.406c0.287,0.24,0.336,0.617,0.428,0.924
		c-0.059,0.305,0.174,0.674-0.102,0.887c-0.223,0.076-0.377,0.314-0.609,0.367c-0.1-0.088-0.082-0.232-0.153-0.326
		c-0.18-0.207-0.271-0.674-0.644-0.572c-0.146,0.148,0.076,0.316,0.127,0.471c0.023,0.289,0.336,0.604,0.071,0.861
		c-0.308-0.148-0.406,0.309-0.712,0.18c-0.338-0.102-0.644,0.496-0.906,0.043c0.024-0.416-0.026-0.83-0.075-1.262
		c-0.05-0.127-0.086-0.313-0.229-0.352c-0.149,0.113-0.029,0.34-0.085,0.492c-0.025,0.387-0.129,0.75-0.3,1.082
		c-0.088,0.092-0.199,0.17-0.336,0.123c-0.031-0.014-0.055-0.043-0.078-0.066c-0.021-0.203,0.055-0.424,0.109-0.621
		c-0.031-0.053-0.105-0.037-0.144-0.014c-0.22,0.256-0.494,0.672-0.912,0.604c-0.054-0.053-0.146-0.078-0.163-0.139
		c0.121-0.217,0.403-0.391,0.382-0.641c-0.198-0.01-0.319,0.223-0.506,0.258C51.146,37.963,51.899,37.6,52,36.908
		C51.969,36.887,51.945,36.852,51.899,36.865z M51.895,33.585c0.305-0.433,0.795-0.521,1.258-0.643
		c0.529,0.031,1.069,0.066,1.424,0.531c0.355,0.498,0.528,1.233,0.297,1.829c-0.313,0.639-0.929,1.072-1.646,1.086
		c-0.277,0.076-0.539-0.072-0.791-0.166c-0.391-0.176-0.531-0.572-0.746-0.883C51.512,34.739,51.631,34.093,51.895,33.585z
		 M57.106,41.561c0.036-0.045,0.104-0.1,0.171-0.133c0.174-0.006,0.318,0.049,0.463,0.113c0.111,0.195,0.159,0.496,0.059,0.703
		c-0.281,0.121-0.521-0.039-0.717-0.215C57.002,41.861,57.172,41.725,57.106,41.561z M57.326,41.225
		c-0.342-0.064-0.571-0.383-0.784-0.65c-0.062-0.293-0.303-0.496-0.312-0.805c-0.034-0.182-0.095-0.414-0.031-0.576h0.029
		c0.248,0.455,0.624,0.85,0.969,1.264c0.123,0.109,0.32,0.148,0.387,0.305C57.552,40.939,57.504,41.145,57.326,41.225z M54.93,47.42
		c-0.346,0.086-0.508-0.303-0.793-0.438c-0.32-0.385-0.644-0.82-0.645-1.342c0.021-0.045,0.074-0.057,0.12-0.051
		c0.241,0.275,0.435,0.678,0.81,0.793c0.054,0.006,0.114-0.012,0.127-0.072c-0.055-0.301-0.262-0.596-0.171-0.9
		c0.22,0.031,0.348,0.283,0.554,0.346c0.141,0.146,0.087,0.352,0.061,0.527C54.93,46.648,55.047,47.074,54.93,47.42z M54.826,53.908
		c0.041-0.848,0.205-1.662,0.195-2.502c0.102-0.131,0.297-0.166,0.479-0.174c0.033,0.123,0.003,0.32,0.043,0.463
		c0.024,0.814-0.141,1.613-0.07,2.451c-0.013,0.34-0.124,0.654-0.112,1.008c-0.056,0.207-0.063,0.439-0.094,0.652
		c0.014,0.697-0.173,1.307-0.289,1.945c-0.104,0.139-0.07,0.434-0.274,0.422c-0.249-0.188-0.106-0.486-0.091-0.729
		c0.078-0.199,0.018-0.453,0.094-0.66C54.623,55.783,54.931,54.918,54.826,53.908z M54.598,59.748
		c0.17,0.357,0.25,0.756,0.345,1.139c0.005,0.195,0.077,0.359-0.054,0.5c-0.472-0.068-0.904,0.135-1.266,0.387
		c-0.113,0.033-0.197-0.033-0.26-0.098c-0.065-0.172-0.02-0.379-0.017-0.561c0.098-0.221-0.025-0.549,0.19-0.693
		c0.104-0.092,0.314-0.078,0.324-0.266c-0.186-0.131-0.52,0.037-0.627-0.225c-0.213-0.287-0.435-0.621-0.443-0.99
		c0.314-0.305,0.803-0.402,1.229-0.281c0.116,0.057,0.254,0.121,0.317,0.248C54.473,59.17,54.491,59.479,54.598,59.748z
		 M53.865,62.074c0.068-0.32,0.422-0.301,0.639-0.438c0.082-0.01,0.182-0.004,0.199,0.094c-0.094,0.615-0.176,1.246-0.59,1.74
		c-0.044,0.055-0.096,0.102-0.172,0.09c-0.055-0.037-0.043-0.119-0.021-0.166C54.145,63.01,54.074,62.451,53.865,62.074z
		 M52.922,63.127c-0.388-0.102-0.86-0.443-0.949-0.863c-0.04-0.098-0.104-0.209-0.053-0.316c0.189-0.203,0.498-0.242,0.771-0.25
		l0.085,0.096C52.721,62.219,52.58,62.787,52.922,63.127z M52.252,61.447c-0.25-0.021-0.385,0.244-0.612,0.223
		c-0.148-0.17-0.066-0.445-0.161-0.631c-0.104-0.662,0.012-1.369,0.564-1.779c0.105-0.061,0.219-0.014,0.318,0.021
		c0.203,0.205,0.295,0.482,0.438,0.729c0.09,0.188,0.245,0.34,0.261,0.568c0.113,0.289,0.033,0.625-0.021,0.906
		C52.791,61.521,52.529,61.318,52.252,61.447z M47.703,62.412c0.164-0.141,0.447-0.266,0.662-0.135
		c0.18,0.16,0.165,0.428,0.171,0.637c-0.207,0.424-0.598,0.76-1.016,0.922c-0.038-0.004-0.083-0.033-0.101-0.072
		c-0.01-0.309,0.166-0.539,0.141-0.85C47.472,62.711,47.611,62.564,47.703,62.412z M48.457,62.023
		c-0.195-0.002-0.365-0.082-0.533-0.16c-0.205-0.037-0.236,0.205-0.408,0.256c-0.053,0.039-0.088,0.115-0.156,0.125
		c-0.08-0.178-0.064-0.404-0.093-0.617c-0.112-0.223-0.046-0.49,0.069-0.689c0.156-0.109,0.285-0.334,0.537-0.258
		c0.065-0.063,0.094-0.146,0.074-0.238c-0.094-0.123-0.259-0.098-0.387-0.07c-0.172,0.08-0.324,0.234-0.465,0.354
		c-0.189-0.266-0.178-0.621-0.21-0.953c0.021-0.318,0.085-0.684,0.359-0.828c0.247,0.121,0.586,0.088,0.716,0.396
		c0.371,0.539,0.841,1.047,0.898,1.727c0.035,0.4,0.086,0.842-0.123,1.174C48.628,62.176,48.588,62.078,48.457,62.023z
		 M47.32,58.191c-0.615-0.336-0.725-0.992-0.639-1.627c0.012-0.107,0.021-0.26,0.15-0.293c0.124,0.088,0.09,0.244,0.169,0.35
		c0.343,0.604,1.026,0.953,1.45,1.49c0.408,0.238,0.566,0.711,0.596,1.178c0.064,0.133,0.031,0.309-0.018,0.432
		c-0.044,0.016-0.068-0.037-0.1-0.059C48.623,59.016,48.008,58.422,47.32,58.191z M44.429,40.791
		c0.218-0.053,0.294-0.268,0.464-0.387c0.162-0.16,0.291-0.385,0.475-0.57c0.098-0.02,0.189,0.016,0.215,0.107
		c0.031,0.285-0.112,0.5-0.166,0.752c-0.285,0.611-0.651,1.205-1.366,1.316c-0.204,0.029-0.372-0.057-0.491-0.203
		c-0.008-0.264-0.135-0.486-0.098-0.744c0.037-0.531,0.388-0.936,0.678-1.367c0.08-0.086,0.274-0.197,0.346-0.041
		c-0.072,0.334-0.146,0.662-0.143,1.025C44.365,40.715,44.383,40.762,44.429,40.791z M45.939,44.502
		c0.398-0.301,0.695-0.752,0.986-1.117c0.029-0.033,0.091,0.012,0.101,0.047c-0.001,0.734-0.429,1.348-0.873,1.926
		c-0.269,0.334-0.757,0.508-1.204,0.422c-0.335-0.051-0.353-0.412-0.481-0.645c-0.015-0.277,0.106-0.51,0.235-0.725
		c0.385-0.268,0.913-0.563,1.119-1.008c0.044-0.063,0.132-0.117,0.188-0.051c-0.016,0.49-0.291,0.879-0.467,1.309
		C45.68,44.721,45.813,44.574,45.939,44.502z M47.033,41.764c0.381-0.117,0.584-0.449,0.795-0.742c0-0.211,0.209-0.316,0.287-0.502
		c0.045-0.021,0.046,0.031,0.068,0.045c0,0.748-0.32,1.424-0.917,1.895c-0.119,0.088-0.293,0.086-0.43,0.066
		c-0.185-0.115-0.467-0.184-0.46-0.447c0.017-0.453,0.117-0.889,0.526-1.135c0.132-0.141,0.181-0.301,0.352-0.35
		c-0.044,0.264-0.11,0.555-0.163,0.836C47.125,41.564,46.939,41.654,47.033,41.764z M48.931,48.68
		c0.023,0.031,0.048,0.066,0.093,0.051c0.086-0.131,0.012-0.324,0.131-0.42c0.051-0.055,0.15-0.041,0.209-0.021
		c0.258,0.244,0.135,0.648,0.175,0.947c-0.015,0.35-0.116,0.654-0.243,0.953c0.063,0.096,0.164,0.018,0.24-0.006
		c0.253-0.373,0.238-0.85,0.324-1.289c0.026-0.09,0.002-0.213,0.076-0.273c0.06-0.018,0.105,0.049,0.114,0.094
		c0.01,0.303-0.05,0.607-0.026,0.895l0.055,0.027c0.308-0.363,0.139-0.934,0.322-1.361c0.083-0.238,0.014-0.523,0.09-0.76
		c0.16,0.01,0.16,0.244,0.201,0.379c-0.018,0.18,0.106,0.299,0.156,0.443c0.115,1.021,0.384,2.369-0.588,3.01
		c-0.344,0.184-0.76,0.143-1.092-0.02c-0.307-0.143-0.359-0.451-0.519-0.688c-0.184-0.576-0.445-1.203-0.274-1.861
		c0.117-0.621,0.165-1.266,0.506-1.805c0.062,0.051,0.019,0.172,0.021,0.254C48.888,47.723,48.773,48.201,48.931,48.68z
		 M51.836,46.609c-0.135-0.238-0.105-0.549-0.166-0.826c0.031-0.205,0.165,0.033,0.213,0.092c0.215,0.59,1.073,0.74,1.123,1.389
		c0.087,0.164,0.088,0.42-0.028,0.576c-0.212,0.217-0.535,0.326-0.868,0.266c-0.49-0.195-0.807-0.672-1.152-1.053
		c-0.023-0.281-0.257-0.514-0.135-0.797c0.089-0.012,0.159,0.07,0.214,0.121c0.251,0.326,0.57,0.58,0.901,0.818
		c0.06,0,0.136,0.006,0.157-0.064C52.171,46.9,51.881,46.805,51.836,46.609z M51.338,52.424c-0.105-0.223-0.396-0.367-0.42-0.621
		c-0.011-0.09-0.061-0.248,0.06-0.299c0.452,0.184,0.87,0.51,1.206,0.91c0.137,0.254,0.148,0.66-0.049,0.877
		c-0.012,0.129-0.062,0.26-0.188,0.332c-0.127,0.064-0.299,0.086-0.46,0.059c-0.536-0.293-0.826-0.873-0.921-1.463h0.061
		c0.241,0.174,0.278,0.656,0.659,0.539C51.377,52.686,51.371,52.537,51.338,52.424z M52.214,51.305
		c-0.337-0.391-0.592-0.822-0.57-1.375c0.03-0.037,0.065-0.061,0.112-0.047c0.07,0.088,0.064,0.217,0.137,0.313
		c0.111,0.195,0.159,0.531,0.463,0.531c0.08-0.049,0.041-0.16,0.021-0.227c0-0.289-0.227-0.545-0.084-0.846h0.046
		c0.382,0.395,0.854,0.813,0.714,1.414c-0.033,0.168-0.204,0.262-0.345,0.32C52.55,51.41,52.359,51.383,52.214,51.305z
		 M47.093,50.676c0.263-0.271,0.458-0.619,0.675-0.912c0.076-0.033,0.078,0.043,0.117,0.078c0.098,0.754-0.313,1.447-0.922,1.813
		c-0.156,0.082-0.358,0.107-0.541,0.084c-0.117-0.117-0.175-0.26-0.284-0.377c-0.062-0.564,0.058-1.135,0.461-1.518
		c0.162-0.164,0.179-0.361,0.356-0.502c0.23,0.129,0.113,0.496,0.135,0.729c0,0.271-0.236,0.445-0.25,0.711
		C46.925,50.885,47.011,50.723,47.093,50.676z M47.637,51.904c0.145-0.254,0.436-0.396,0.586-0.658
		c0.097-0.027,0.174,0.029,0.222,0.09c-0.001,0.482-0.283,0.861-0.537,1.264c0.147,0.115,0.247-0.121,0.413-0.08
		c0.311-0.242,0.307-0.637,0.533-0.924c0.089-0.027,0.152,0.07,0.186,0.139c0.321,0.664-0.137,1.26-0.447,1.752
		c-0.193,0.359-0.62,0.238-0.936,0.283c-0.176-0.037-0.365-0.07-0.424-0.273C47.115,52.889,47.502,52.43,47.637,51.904z
		 M48.512,46.121c-0.046,0.281-0.144,0.535-0.188,0.814l-0.087,0.102c0.084,0.072-0.01,0.219-0.021,0.318
		c-0.119,0.57-0.597,1.018-1.152,1.139c-0.198-0.031-0.389-0.086-0.551-0.203c-0.256-0.229-0.193-0.645-0.173-0.957
		c0.201-0.639,0.592-1.209,0.952-1.771c0.037-0.031,0.135-0.096,0.144-0.006c0.079,0.564-0.034,1.09-0.201,1.58
		c-0.042,0.113,0.015,0.24,0.13,0.297c0.202-0.066,0.248-0.316,0.402-0.443l-0.002-0.082c0.236-0.4,0.467-0.809,0.559-1.264
		c0.028-0.061,0.089-0.049,0.143-0.051C48.598,45.734,48.498,45.941,48.512,46.121z M45.488,43.029
		c-0.221,0.242-0.479,0.438-0.821,0.365c-0.083-0.025-0.19-0.063-0.216-0.152c-0.093-0.557,0.396-0.889,0.473-1.375
		c0.103-0.109,0.18-0.277,0.324-0.283c0.07,0.338-0.071,0.639-0.146,0.951c0.107,0.057,0.193-0.127,0.266-0.205
		c0.222-0.414,0.353-0.871,0.46-1.336c0.041-0.094,0.135-0.027,0.145,0.039C46.078,41.787,45.848,42.443,45.488,43.029z
		 M44.371,46.689l0.529-0.516c0.06-0.002,0.127-0.004,0.145,0.063c0.078,0.33-0.086,0.652-0.198,0.945
		c0.012,0.143-0.144,0.283-0.033,0.402c0.158-0.021,0.259-0.207,0.36-0.316c0.227-0.291,0.414-0.617,0.709-0.836
		c0.029,0,0.061,0.008,0.076,0.035c-0.038,0.484-0.275,0.895-0.467,1.322c-0.238,0.369-0.621,0.723-1.1,0.639l-0.116-0.109
		C44.236,47.789,44.051,47.145,44.371,46.689z M46.059,52.744c0.088-0.072,0.131-0.186,0.227-0.213
		c0.006,0.188-0.17,0.346-0.232,0.535c-0.07,0.209-0.215,0.387-0.193,0.627c0.086,0.109,0.19,0.023,0.271-0.023
		c0.236-0.172,0.375-0.395,0.571-0.607c0.031,0.021,0.019,0.076,0.019,0.115c-0.036,0.016-0.027,0.055-0.027,0.09
		c-0.207,0.422-0.431,0.98-0.957,1.104c-0.18,0.049-0.355,0.012-0.48-0.129c-0.131-0.336-0.029-0.748,0.174-1.01
		C45.668,53.064,45.787,52.813,46.059,52.744z M45.984,56.57c0.05,0.426,0.132,0.875-0.092,1.236
		c-0.064,0.102-0.191,0.18-0.299,0.107c-0.154-0.055-0.173-0.234-0.186-0.381c-0.027-0.432-0.076-0.783,0.063-1.172
		c0.076-0.252,0.136-0.529,0.166-0.801c0.046-0.205,0.063-0.424,0.139-0.613c0.058,0.133,0.041,0.299,0.098,0.434
		C45.961,55.771,45.807,56.213,45.984,56.57z M45.262,59.568c0.098-0.246,0.188-0.492,0.425-0.658
		c0.106-0.246,0.397-0.131,0.582-0.236c0.163,0.139,0.571-0.131,0.521,0.203c-0.207,0.4-0.359,0.859-0.246,1.338
		c-0.107,0.225-0.57-0.049-0.475,0.332c0.151,0.27,0.479,0.092,0.623,0.352c0.063,0.332,0.104,0.68,0.151,1.018
		c-0.013,0.053-0.082,0.041-0.104,0.018c-0.256-0.189-0.601-0.354-0.921-0.178c-0.192,0.105-0.315,0.322-0.478,0.477
		c-0.097,0.055-0.123-0.078-0.148-0.141C44.972,61.275,45.064,60.344,45.262,59.568z M47.75,56.977
		c-0.221-0.311-0.3-0.686-0.477-1.021c-0.047-0.354-0.098-0.721-0.001-1.059c0.034-0.09,0.04-0.211,0.136-0.275l0.039,0.037
		c-0.03,0.779,0.5,1.314,0.934,1.885c0.327,0.33,0.957,0.432,0.906,1.018c0,0.254,0.176,0.545,0.009,0.775
		c-0.075,0.006-0.055-0.051-0.101-0.088C48.808,57.693,48.24,57.416,47.75,56.977z M49.26,56.045
		c-0.361-0.42-0.732-0.93-0.507-1.504c0.026-0.387,0.174-0.762,0.499-1.004c0.065-0.094,0.016-0.258,0.15-0.293
		c0.063,0.09-0.041,0.152-0.054,0.221c0.063,0.391,0.286,0.975-0.075,1.303c-0.005,0.066-0.002,0.158,0.066,0.186
		c0.381,0.104,0.307-0.393,0.529-0.527c0.039,0.309-0.188,0.564-0.393,0.783c0.033,0.105,0.161,0.107,0.246,0.164
		c0.219-0.021,0.279-0.271,0.373-0.426c0.101-0.455,0.055-0.945-0.205-1.318c0.018-0.129-0.064-0.338,0.053-0.455
		c0.252,0.025,0.373,0.301,0.507,0.471c0.179,0.434,0.263,0.967,0.11,1.432c0.061,0.461-0.352,0.57-0.617,0.865
		C49.751,56.045,49.482,56.166,49.26,56.045z M50.32,56.969c0.032-0.189,0.18-0.309,0.273-0.455c0.16-0.453,0.443-0.877,0.664-1.281
		c0.168-0.232,0.098-0.547,0.219-0.795c0.136,0.035,0.135,0.223,0.199,0.328c0.053,0.533,0.062,1.086-0.129,1.539
		c-0.33,0.559-0.752,1.072-1.039,1.648c-0.117,0.102-0.098,0.26-0.161,0.391C50.099,57.926,50.136,57.389,50.32,56.969z
		 M50.645,58.941c0.061-0.473,0.373-0.852,0.551-1.266c0.363-0.471,0.598-1,0.785-1.543c0.026-0.115-0.068-0.209,0.021-0.303
		c0.196,0.295,0.27,0.701,0.229,1.096c0.016,1.029-1.079,1.553-1.226,2.518c-0.116,0.104-0.204,0.256-0.276,0.371
		C50.578,59.576,50.658,59.227,50.645,58.941z M52.973,56.932c0.035-0.584,0.215-1.113,0.236-1.701
		c-0.025-0.092,0.098-0.238,0.127-0.066c0.107,0.557-0.012,1.16,0.163,1.688c-0.024,0.389,0.071,0.869-0.269,1.092
		c-0.143,0.088-0.251-0.055-0.278-0.166C52.815,57.479,53.043,57.238,52.973,56.932z M53.842,53.479
		c-0.078,0.148-0.236,0.176-0.373,0.141c-0.559-0.188-0.781-0.83-0.94-1.348c0.135-0.041,0.171,0.162,0.293,0.203
		c0.222,0.055,0.31,0.475,0.556,0.348c-0.039-0.258-0.309-0.408-0.354-0.654c-0.031-0.105-0.135-0.217-0.077-0.324
		c0.144,0.025,0.099,0.238,0.265,0.264c0.327,0.074,0.587,0.391,0.723,0.682C54.048,53.02,53.973,53.287,53.842,53.479z
		 M52.686,44.758c-0.395-0.285-0.49-0.734-0.609-1.16c0.012-0.146-0.055-0.318,0.031-0.434c0.067-0.018,0.07,0.08,0.119,0.125
		c0.232,0.229,0.363,0.594,0.68,0.744c0.061,0.057,0.064,0.141,0.148,0.189c0.078,0.047,0.166-0.012,0.201-0.088
		c-0.004-0.135-0.129-0.262-0.215-0.381c-0.078-0.322-0.424-0.545-0.339-0.926c0.141-0.131,0.239,0.137,0.376,0.193
		c0.428,0.146,0.994,0.371,1.064,0.896c0.021,0.281,0.049,0.666-0.24,0.855C53.547,44.98,53.047,44.936,52.686,44.758z
		 M53.889,41.791c0.107,0.059,0.187,0.184,0.295,0.248c0.216,0.184,0.391,0.457,0.279,0.762c-0.072,0.131-0.09,0.299-0.231,0.387
		c-0.278,0.008-0.47-0.313-0.663-0.457c-0.172-0.184-0.299-0.408-0.231-0.682c0.027-0.084,0.11-0.041,0.157-0.02
		c0.168,0.055,0.298,0.363,0.475,0.227C53.965,42.092,53.816,41.951,53.889,41.791z M54.158,41.58
		c-0.302-0.453-0.564-0.92-0.635-1.471c0.014-0.037,0.066-0.047,0.098-0.02c0.235,0.313,0.537,0.779,0.984,0.775
		c0.131-0.141-0.063-0.287-0.098-0.436c-0.026-0.168-0.146-0.336-0.075-0.508c0.144-0.031,0.141,0.141,0.241,0.199
		c0.293,0.189,0.595,0.434,0.665,0.781c0.003,0.34-0.039,0.742-0.311,0.953C54.726,41.857,54.405,41.791,54.158,41.58z
		 M50.969,45.393c-0.342,0.441-0.86,0.789-1.451,0.762c-0.288-0.059-0.586-0.141-0.791-0.393c0.039-0.25-0.281-0.33-0.229-0.59
		c-0.182-0.5-0.432-0.994-0.336-1.602c-0.071-0.623,0.061-1.285,0.217-1.871c0.057-0.094,0.176-0.445,0.318-0.207
		c0.002,0.559-0.155,1.123,0.064,1.645c0.07,0.039,0.116,0.117,0.207,0.107c0.162-0.146-0.012-0.406,0.126-0.576
		c0.083-0.057,0.132,0.041,0.163,0.1c0.094,0.58,0,1.285,0.28,1.799c0.056,0.096,0.173,0.176,0.276,0.137
		c0.096-0.059,0.05-0.117,0.055-0.205c-0.304-0.787-0.297-1.83,0.02-2.598c0.061-0.016,0.07,0.029,0.101,0.066
		c0.061,0.527-0.073,1.055,0.106,1.547c0.226-0.061,0.202-0.316,0.272-0.484c0.144-0.549-0.024-1.088,0.148-1.621
		c0.062,0.004,0.049,0.08,0.095,0.109C51.003,42.709,51.809,44.164,50.969,45.393z M48.592,34.048
		c-0.025-0.112,0.055-0.268-0.07-0.336c-0.119,0.04-0.262,0.066-0.366,0.109c-0.038-0.01-0.07-0.069-0.079-0.112
		c0.006-0.023,0.014-0.048,0.012-0.086c0.238-0.149,0.476-0.31,0.736-0.414c0.051-0.093,0.183-0.238,0.27-0.091
		c-0.026,0.379-0.258,0.682-0.432,1.003C48.596,34.148,48.631,34.07,48.592,34.048z M47.877,33.153
		c-0.195,0.021-0.436,0.063-0.592-0.081c0.055-0.177,0.299-0.122,0.441-0.187c0.277-0.062,0.45,0.152,0.679,0.205
		c0.009,0.023,0.024,0.045,0.019,0.076C48.259,33.233,48.074,33.131,47.877,33.153z M48.529,31.573
		c-0.129-0.004-0.118-0.157-0.211-0.221c-0.07-0.06-0.133-0.139-0.246-0.107c-0.14,0.119-0.171,0.31-0.258,0.455l0.004,0.128
		c-0.173,0.029-0.24-0.204-0.357-0.307c-0.069-0.308,0.151-0.526,0.326-0.743c0.211-0.015,0.455,0.068,0.581,0.255
		C48.436,31.204,48.582,31.344,48.529,31.573z M47.663,32.243c-0.06,0.257,0.257,0.24,0.397,0.343l0.046,0.06
		c-0.049,0.107-0.185,0.119-0.284,0.091c-0.266-0.074-0.605-0.051-0.844,0.071c-0.129,0.019-0.25,0-0.343-0.081
		c0.023-0.212,0.308-0.079,0.448-0.141c0.105-0.058,0.217-0.093,0.313-0.176c-0.258-0.251-0.65-0.02-0.975-0.034
		c-0.211,0.06-0.488,0.129-0.659-0.023c-0.01-0.045,0.042-0.083,0.079-0.103c0.32,0.074,0.494-0.188,0.773-0.195
		c0.246-0.114,0.536-0.031,0.771,0.021C47.472,32.15,47.586,32.155,47.663,32.243z M46.941,31.705
		c-0.521-0.008-0.938,0.262-1.451,0.219c-0.033-0.045-0.115-0.021-0.131-0.088c-0.025-0.074,0.073-0.055,0.11-0.086
		c0.138-0.179,0.382-0.096,0.537-0.236c0.143-0.012,0.311,0.02,0.397-0.109c0.331-0.026,0.652,0.048,0.855,0.276l0.001,0.066
		C47.148,31.804,47.049,31.716,46.941,31.705z M45.604,33.119c0.555-0.176,1.156-0.025,1.575,0.339
		c0.356,0.548,0.493,1.308,0.247,1.943c-0.16,0.436-0.525,0.9-1.022,0.945c-0.589,0.268-1.194-0.039-1.66-0.418
		c-0.345-0.377-0.647-0.896-0.428-1.408C44.432,33.867,44.95,33.291,45.604,33.119z M43.699,42.85
		c0.029-0.008,0.045,0.016,0.061,0.031c-0.041,1.188,0.008,2.305,0.09,3.52c0.078,1.063,0.111,2.195,0.166,3.236
		c-0.032,0.199-0.248,0.326-0.295,0.518c-0.117,0.131-0.219,0.301-0.367,0.35c-0.154-0.32-0.082-0.73-0.161-1.084
		c-0.061-1.746-0.296-3.551-0.261-5.375c0.069-0.229,0.236-0.422,0.299-0.65C43.383,43.201,43.583,43.037,43.699,42.85z
		 M44.238,49.93l0.05-0.09c0.281-0.215,0.544-0.492,0.757-0.74c0.045-0.018,0.083,0.004,0.113,0.039
		c-0.127,0.527-0.247,1.045-0.574,1.484c-0.014,0.063,0.01,0.115,0.064,0.127c0.203-0.256,0.391-0.549,0.665-0.752
		c0.168-0.193,0.266-0.439,0.497-0.561c0.119,0.164-0.004,0.357-0.006,0.529c-0.053,0.787-0.445,1.533-1.184,1.859
		c-0.251,0-0.403,0.229-0.67,0.133c-0.206-0.047-0.43-0.217-0.511-0.402C43.367,50.91,43.806,50.383,44.238,49.93z M43.843,52.246
		l0.331-0.064c0.038,0.014,0.068,0.027,0.099,0.064c0.089,0.883,0.116,1.813,0.242,2.723c0.034,0.656,0.118,1.236,0.185,1.887
		c0.059,0.428,0.027,0.904,0.212,1.283c0.171,0.367-0.102,0.641-0.229,0.938c-0.332-0.027-0.027-0.428-0.221-0.59
		c-0.285-1.17-0.629-2.311-0.697-3.57c-0.078-0.578-0.126-1.174-0.152-1.771c-0.105-0.301-0.025-0.627-0.11-0.943
		C43.619,52.1,43.721,52.248,43.843,52.246z M43.57,60.797c0.025-0.402,0.053-0.803,0.322-1.113
		c0.008-0.211,0.243-0.229,0.367-0.344c0.203,0.002,0.449-0.172,0.613-0.004c0.004,0.143,0.202,0.219,0.139,0.381
		c-0.105,0.238-0.236,0.416-0.451,0.574c-0.105,0.018-0.268-0.107-0.315,0.053c0.046,0.273,0.411,0.096,0.485,0.326
		c0.007,0.236,0.107,0.498,0.007,0.721c-0.22,0.021-0.528,0.029-0.743,0.148c-0.105,0.064-0.209,0.15-0.338,0.117
		C43.431,61.459,43.51,61.07,43.57,60.797z M44.071,61.785c0.201-0.08,0.437-0.088,0.642-0.02c-0.029,0.244-0.107,0.473-0.09,0.736
		c0.038,0.301,0.178,0.615,0.49,0.734v0.016c-0.225,0.051-0.403-0.123-0.603-0.186c-0.262-0.166-0.302-0.463-0.423-0.707
		C44.076,62.172,43.873,61.949,44.071,61.785z M46.051,61.99c0.205,0.021,0.447,0.021,0.553,0.232
		c-0.023,0.242-0.148,0.434-0.109,0.689c0.047,0.264,0.031,0.553,0.181,0.768l0.005,0.098c-0.19-0.018-0.355-0.193-0.51-0.342
		c-0.288-0.285-0.594-0.594-0.574-1.002C45.665,62.229,45.879,62.1,46.051,61.99z M55.453,61.775
		c-0.055-0.035-0.033-0.129-0.02-0.176c0.188-0.291,0.543-0.061,0.811-0.164l0.047,0.025c0.055,0.324-0.287,0.531-0.354,0.83
		c-0.052,0.076-0.078,0.152-0.09,0.242c-0.161,0.203-0.299,0.402-0.514,0.553l-0.099,0.002C55.29,62.65,55.656,62.283,55.453,61.775
		z M56.408,61.082c-0.065,0.055-0.138,0.141-0.23,0.092c-0.285-0.145-0.521,0.082-0.799,0.082c-0.098-0.223-0.174-0.469-0.152-0.727
		c0.17-0.186,0.369-0.32,0.53-0.5c0.007-0.053-0.011-0.113-0.071-0.119c-0.205-0.047-0.44,0.391-0.587,0.078
		c-0.122-0.244-0.243-0.492-0.297-0.777c0.185-0.141,0.364,0.043,0.532,0.098l0.289,0.076c0.527,0.104,0.528,0.664,0.766,1.012
		C56.396,60.623,56.689,60.902,56.408,61.082z M55.275,50.971c-0.617,0.117-1.191-0.152-1.6-0.609
		c-0.189-0.305-0.381-0.607-0.431-0.977c0.037-0.055,0.104-0.086,0.159-0.053c0.317,0.293,0.675,0.563,1.063,0.703l0.059-0.076
		c0.07,0.035,0.104,0.154,0.193,0.107c0-0.045,0.089-0.064,0.034-0.1c-0.481-0.4-0.782-0.877-0.927-1.432
		c-0.027-0.105,0.094-0.107,0.164-0.082c0.508,0.311,1.01,0.668,1.483,1.074c0.183,0.268,0.418,0.564,0.269,0.924
		C55.705,50.695,55.529,50.918,55.275,50.971z M55.619,41.184c0.021-0.055,0.098-0.035,0.127-0.021
		c0.219,0.168,0.309,0.414,0.48,0.613c0.379,0.285,0.725,0.715,1.182,0.842c0.143,0.193,0.376,0.156,0.546,0.287
		c-0.033,0.184-0.134,0.367-0.32,0.426c-0.552,0.023-0.88-0.373-1.254-0.75C55.961,42.191,55.785,41.691,55.619,41.184z
		 M57.912,40.293c-0.121,0.051-0.281,0.002-0.388-0.07c-0.415-0.184-0.238-0.645-0.317-0.98c-0.023-0.264-0.07-0.58,0.074-0.795
		c0.068-0.02,0.115,0.064,0.146,0.1C57.634,39.107,57.938,39.629,57.912,40.293z M57.525,36.418
		c-0.049,0.086-0.111,0.051-0.18,0.035c-0.142-0.207-0.41-0.311-0.462-0.559c-0.042-0.098-0.161-0.055-0.222-0.039
		c-0.014,0.039-0.065,0.063-0.033,0.107c0.305,0.354,0.357,0.813,0.662,1.168c-0.017,0.232-0.201,0.396-0.301,0.553
		c-0.03,0.014-0.067,0.016-0.098,0.016c-0.164-0.139-0.162-0.348-0.289-0.504c0.004-0.145-0.068-0.264-0.139-0.383
		c0.07-0.402-0.262-0.619-0.414-0.924c-0.201-0.158-0.464-0.158-0.646-0.383c-0.011-0.082-0.013-0.164,0.054-0.229
		c0.257-0.262,0.606,0.074,0.897-0.072c0.131,0.082,0.287-0.038,0.432,0.02c0.201,0.121,0.389,0.289,0.629,0.296
		c0.162,0.115,0.245,0.318,0.189,0.525C57.579,36.168,57.515,36.281,57.525,36.418z M57.014,32.745
		c-0.021,0.112-0.113,0.253-0.005,0.355c0.125,0.103,0.293,0.15,0.342,0.324c0.042,0.095,0.022,0.195-0.089,0.229
		c-0.342,0.019-0.633,0.147-0.85,0.44c0.001,0.053-0.004,0.114,0.057,0.143c0.234,0.015,0.234-0.302,0.451-0.338
		c0.159,0.017,0.329-0.141,0.461,0c-0.047,0.184,0.204,0.267,0.21,0.447c-0.082,0.306,0.052,0.687-0.122,0.956
		c-0.378,0.012-0.701-0.438-1.086-0.124c-0.25-0.038-0.465-0.155-0.744-0.122c-0.192-0.147-0.26-0.402-0.224-0.646
		c0.07-0.176,0.276-0.121,0.379-0.252c0.113-0.012,0.251,0.076,0.347-0.026c-0.043-0.164-0.289-0.088-0.418-0.1
		c-0.113,0.05-0.23,0.136-0.359,0.109c-0.133-0.081-0.113-0.246-0.095-0.369c0.175-0.412,0.651-0.472,1.04-0.561
		c0.023-0.023,0.06-0.055,0.044-0.093c-0.439-0.257-0.853,0.079-1.193,0.303c-0.052,0.024-0.106-0.021-0.109-0.071
		c0.076-0.291,0.21-0.622,0.539-0.72c0.021-0.047,0.097-0.071,0.071-0.131c-0.115-0.081-0.218,0.028-0.33,0.038
		c-0.148,0.141-0.333,0.27-0.519,0.357c0.015-0.243,0.251-0.438,0.351-0.669c-0.018-0.029-0.018-0.06-0.057-0.081
		c-0.328,0.169-0.545,0.469-0.857,0.667c-0.09,0.033-0.203,0.021-0.271-0.036c-0.057-0.045-0.043-0.126-0.022-0.181
		c0.243-0.258,0.46-0.581,0.579-0.91c0.201-0.564,0.9-0.481,1.272-0.884c0.184,0.055,0.423-0.066,0.51,0.129
		c-0.073,0.091-0.177,0.109-0.28,0.15c-0.244,0.188-0.613,0.275-0.701,0.626c0.156,0.117,0.223-0.15,0.351-0.2
		c0.087-0.062,0.191-0.154,0.313-0.107c0.156,0.177,0.348-0.259,0.447,0.072c-0.063,0.159-0.258,0.217-0.391,0.312
		c-0.146,0.134-0.285,0.326-0.347,0.524c0.048,0.098,0.138,0.005,0.205,0.009c0.206-0.171,0.402-0.426,0.675-0.419
		C56.917,32.052,57.033,32.405,57.014,32.745z M53.518,29.787c0.234-0.262,0.589-0.235,0.85-0.426
		c0.683-0.193,1.445,0.063,2.021-0.362l0.732-0.505c0.273-0.01,0.402-0.284,0.616-0.398c0.075-0.023,0.153,0.02,0.162,0.089
		c-0.073,0.343-0.245,0.647-0.272,0.995c-0.068,0.534-0.646,0.61-0.964,0.915c-0.229,0.152-0.524,0.152-0.777,0.243
		c-0.591,0.002-1.111,0.305-1.413,0.783c0.096,0.157-0.076,0.26-0.188,0.324c-0.134,0.086-0.346,0.062-0.424,0.217
		c0.062,0.064,0.205,0.045,0.186,0.176c-0.31,0.258-0.829,0.048-1.146,0.283c-0.045,0.038-0.119,0.064-0.125,0.132
		c0.086,0.066,0.271-0.015,0.26,0.136c-0.227,0.219-0.577,0.147-0.838,0.283c-0.02,0.06,0.049,0.088,0.086,0.095
		c0.121,0.003,0.225-0.083,0.346-0.04c-0.003,0.114-0.146,0.103-0.213,0.164c-0.26,0.122-0.62,0.033-0.84,0.229
		c0.109,0.103,0.305,0.053,0.383,0.172c-0.289,0.181-0.66,0.179-0.939,0.376c-0.225,0.15,0.087,0.662-0.313,0.524
		c-0.236-0.177-0.337-0.438-0.383-0.71c0.072-0.107-0.049-0.374,0.148-0.343c0.191,0.1,0.168,0.312,0.33,0.405
		c0.129,0.012,0.191-0.134,0.264-0.213c-0.182-0.31,0.28-0.316,0.402-0.523c-0.039-0.258,0.257-0.222,0.391-0.314
		c0.263-0.076,0.541-0.131,0.787-0.236c-0.002-0.045-0.054-0.035-0.078-0.06c-0.043,0.024-0.098,0.02-0.143,0.02
		c-0.031-0.021-0.039-0.043-0.032-0.081c0.284-0.379,0.785-0.288,1.182-0.429c-0.026-0.104-0.177-0.107-0.098-0.238
		c0.265-0.229,0.761-0.114,0.876-0.526c0.006-0.083,0.122-0.193,0.009-0.25c-0.187,0.098-0.341,0.283-0.519,0.396
		c-0.17,0.186-0.377,0.288-0.595,0.357c0.021-0.122,0.093-0.184,0.181-0.279c0.347-0.326,0.545-0.74,0.686-1.152
		c-0.027-0.084-0.125-0.043-0.176-0.033c-0.316,0.312-0.688,0.519-1.027,0.771c-0.084,0.002-0.158,0.057-0.242,0.023
		c-0.072-0.174,0.166-0.233,0.232-0.361C53.13,30.24,53.297,29.992,53.518,29.787z M50.233,31.571
		c-0.101-0.112-0.085-0.3-0.097-0.46c-0.047-0.035-0.062-0.043-0.129-0.033c-0.126,0.109-0.22,0.265-0.192,0.436
		c-0.037,0.031-0.067,0.034-0.098-0.009c-0.069-0.271-0.01-0.577,0.119-0.822c0.073-0.086,0.183-0.188,0.298-0.152
		c0.138,0.079,0.211,0.227,0.32,0.346C50.395,31.111,50.426,31.399,50.233,31.571z M51.25,31.18
		c-0.107-0.093-0.193,0.053-0.283,0.093c-0.132,0.134-0.174,0.27-0.291,0.41c-0.059,0.023-0.092-0.043-0.115-0.081
		c-0.001-0.279,0.091-0.524,0.204-0.753c0.115-0.157,0.351-0.155,0.451-0.354c0.112-0.072,0.373-0.162,0.388,0.071
		c0.006,0.226,0.104,0.421,0.208,0.598c-0.032,0.212-0.156,0.391-0.241,0.583c-0.043,0.046-0.11,0.094-0.171,0.072
		C51.444,31.583,51.303,31.399,51.25,31.18z M51.487,28.898c0.007-0.264,0.303-0.229,0.466-0.3c0.341-0.033,0.674,0.033,0.857,0.338
		c0.057,0.119,0.111,0.222,0.139,0.351c-0.162,0.116-0.125,0.357-0.303,0.469c-0.275-0.088-0.194-0.447-0.404-0.621
		c-0.287-0.195-0.549,0.114-0.811,0.197C51.329,29.199,51.46,29.043,51.487,28.898z M51.848,29.492c0.07,0,0.138-0.005,0.177,0.062
		c-0.003,0.357,0.476,0.729,0.062,1.034c-0.287-0.02-0.221-0.339-0.332-0.518c-0.219-0.174-0.359,0.162-0.586,0.146
		c-0.098,0.017-0.17-0.078-0.119-0.169C51.098,29.651,51.549,29.606,51.848,29.492z M49.699,28.876
		c0.162-0.366,0.607-0.426,0.979-0.429c0.178,0.16,0.236,0.362,0.379,0.531c0.041,0.127-0.047,0.26-0.097,0.36
		c-0.104,0.009-0.163-0.172-0.278-0.22c-0.191-0.086-0.405-0.154-0.631-0.095c-0.12,0.025-0.205,0.164-0.328,0.123
		C49.668,29.082,49.68,28.96,49.699,28.876z M50.135,29.361c0.238-0.098,0.309,0.24,0.441,0.371c0.049,0.129,0.27,0.195,0.17,0.374
		c-0.051,0.069-0.068,0.229-0.191,0.172c-0.185-0.107-0.284-0.394-0.516-0.279c-0.104,0.086-0.159,0.224-0.294,0.25
		c-0.125-0.103-0.055-0.293-0.082-0.442C49.818,29.641,49.935,29.518,50.135,29.361z M49.607,33.297
		c0.168-0.1,0.403,0.076,0.531-0.119l0.045,0.015c0.044,0.227,0.186,0.498,0.053,0.731c-0.006,0.133,0.088,0.243,0.062,0.359
		c-0.142-0.023-0.116-0.181-0.2-0.26c-0.048-0.081-0.078-0.152-0.162-0.188c-0.191,0.028-0.104,0.469-0.348,0.247
		c-0.064-0.154,0.105-0.424-0.111-0.5c-0.137,0.152-0.152,0.338-0.253,0.498c-0.074-0.043-0.167-0.129-0.177-0.233
		c0.329-0.122-0.053-0.503,0.308-0.617C49.449,33.176,49.54,33.241,49.607,33.297z M49.414,31.311
		c-0.129-0.005-0.072-0.141-0.135-0.207c-0.047-0.06-0.096-0.186-0.193-0.139c-0.102,0.117-0.127,0.284-0.085,0.434l-0.044,0.038
		c-0.158-0.19-0.262-0.421-0.247-0.664c0.019-0.167,0.165-0.314,0.306-0.396c0.137,0.005,0.223,0.124,0.346,0.164
		C49.52,30.756,49.49,31.073,49.414,31.311z M48.665,30.091c-0.036,0.101-0.107,0.2-0.204,0.265
		c-0.098,0.01-0.153-0.064-0.193-0.138c-0.063-0.074-0.027-0.182-0.039-0.271c0.139-0.203,0.198-0.468,0.415-0.586
		c0.249-0.01,0.378,0.297,0.642,0.252c0.086,0.064,0.066,0.179,0.078,0.283C49.135,30.101,48.806,29.76,48.665,30.091z
		 M48.695,28.446c0.149-0.02,0.271,0.007,0.373,0.103c0.139,0.131,0.131,0.336,0.271,0.469c0.003,0.089,0.012,0.195-0.076,0.243
		c-0.354,0.058-0.412-0.405-0.76-0.316c-0.123,0.145-0.346,0.267-0.4,0.464c-0.052,0.048-0.102,0.11-0.171,0.064
		c-0.079-0.078-0.15-0.159-0.174-0.265C47.928,28.817,48.226,28.443,48.695,28.446z M47.904,30.02
		c0.043,0.104,0.076,0.255,0.043,0.355c-0.223-0.024-0.484,0.021-0.584,0.273c-0.086,0.141-0.119,0.313-0.26,0.424
		c-0.129-0.071-0.209-0.229-0.267-0.362c0.122-0.247,0.198-0.497,0.333-0.729c0.029-0.038,0.066-0.078,0.109-0.086
		C47.494,29.925,47.68,30.08,47.904,30.02z M46.556,28.808c0.22,0.007,0.438,0.009,0.61,0.154c0.116,0.103,0.152,0.319,0.342,0.343
		c0.07,0.029,0.072,0.112,0.072,0.157c-0.088,0.101-0.21,0.015-0.316,0.026c-0.227,0.008-0.529-0.281-0.656,0.064
		c-0.063,0.107-0.104,0.291-0.247,0.303c-0.134-0.131-0.222-0.296-0.188-0.479C46.311,29.177,46.355,28.949,46.556,28.808z
		 M41.45,28.879c-0.04-0.271,0.021-0.538,0.036-0.803c0.043-0.033,0.072-0.101,0.125-0.103c0.285-0.076,0.219,0.257,0.352,0.374
		c0.145,0.276,0.365,0.564,0.684,0.639c0.568,0.025,1.23-0.091,1.75,0.104c0.441,0.086,0.799,0.429,1.143,0.76
		c0.09,0.005,0.133-0.079,0.238-0.053c0.104,0.141,0.393,0.2,0.316,0.422c0.326,0.036,0.428,0.405,0.668,0.586
		c-0.229,0.202,0.477,0.508-0.063,0.47c-0.406-0.222-0.766,0.106-1.168,0.126c-0.099-0.026-0.219-0.017-0.305-0.098l0.035-0.084
		c0.244-0.174,0.513-0.302,0.837-0.326c0.075-0.048,0.024-0.204,0.17-0.149c0.054,0.06,0.11,0.169,0.208,0.152
		c0.03-0.015,0.014-0.053,0.014-0.084c-0.184-0.047-0.228-0.267-0.426-0.305c-0.15,0.005-0.318-0.021-0.398-0.176
		c-0.068-0.255-0.352-0.377-0.559-0.467c-0.1-0.064-0.215-0.146-0.343-0.096c-0.059,0.053-0.125,0.124-0.069,0.205
		c0.191,0.298,0.434,0.569,0.661,0.843v0.028c-0.28-0.014-0.456-0.371-0.743-0.34c-0.037,0.04-0.065,0.106-0.026,0.159
		c0.112,0.179,0.353,0.397,0.192,0.601c-0.195,0.021-0.293-0.195-0.395-0.322c-0.023-0.271-0.298-0.345-0.505-0.429
		c-0.214-0.078-0.444,0.034-0.673-0.012c-0.199-0.071-0.428,0.105-0.576-0.081C41.959,30.215,41.5,29.556,41.45,28.879z
		 M41.282,40.045c0.109-0.359,0.036-0.787,0.269-1.098c0.177,0.049,0.063,0.264,0.127,0.414c0.1,0.322,0.104,0.705,0.16,1.029
		c-0.101,0.17-0.296,0.299-0.491,0.271C41.228,40.5,41.279,40.24,41.282,40.045z M42.961,39.477
		c0.051-0.084,0.201-0.119,0.227,0.008c-0.004,0.318-0.133,0.594-0.23,0.869c-0.274,0.424-0.351,0.939-0.746,1.307
		c-0.209,0.129-0.381,0.42-0.662,0.385c-0.129-0.225-0.31-0.447-0.293-0.711C41.883,40.811,42.59,40.184,42.961,39.477z
		 M41.792,43.225c-0.119,0.055-0.244,0.166-0.366,0.125c-0.03-0.234-0.109-0.586,0.137-0.723c0.126-0.088,0.314-0.342,0.414-0.08
		C42.021,42.795,42.029,43.068,41.792,43.225z M42.164,43.08c0.268-0.432,0.705-0.717,0.857-1.189
		c0.037-0.033,0.086-0.139,0.143-0.057c-0.051,0.824-0.393,1.553-0.879,2.203c-0.233,0.316-0.609,0.381-0.93,0.541
		c-0.105,0.012-0.198-0.086-0.238-0.174c-0.049-0.098-0.098-0.217-0.063-0.33C41.453,43.797,41.874,43.469,42.164,43.08z
		 M40.052,42.701c0.046-0.266,0.112-0.547,0.38-0.699c0.143-0.082,0.304-0.205,0.465-0.16l0.168,0.314
		c0.043,0.422-0.408,0.525-0.65,0.752c-0.084,0.01-0.087,0.131-0.172,0.072C40.119,42.926,40.086,42.805,40.052,42.701z
		 M40.35,46.604c-0.113,0.039-0.176-0.055-0.261-0.092c-0.124-0.133-0.214-0.305-0.158-0.502c0.061-0.25,0.37-0.252,0.462-0.498
		c0.35-0.162,0.535-0.545,0.822-0.789c0.145,0.027,0.299-0.145,0.4,0.006C41.297,45.416,40.907,46.033,40.35,46.604z M42.059,55.994
		c-0.386-1.303-0.75-2.621-0.95-4.016c-0.233-1.164-0.269-2.42-0.479-3.592c0.061-0.545-0.033-1.094-0.049-1.646
		c0.123-0.168,0.316-0.266,0.471-0.398c0.039-0.004,0.069,0.014,0.094,0.049c-0.02,0.908,0.202,1.742,0.162,2.643
		c0.08,0.654,0.168,1.369,0.25,2.025c-0.024,0.682,0.123,1.355,0.145,2.059c0.076,0.756,0.248,1.475,0.311,2.246
		c0.027,0.209,0.102,0.404,0.078,0.631H42.059z M42.421,55c-0.108-0.617-0.107-1.307-0.229-1.893
		c-0.158-1.191-0.174-2.467-0.254-3.666c-0.07-0.34-0.113-0.723-0.131-1.1c-0.107-0.777-0.072-1.586-0.244-2.344
		c-0.068-0.467,0.086-0.857,0.25-1.238c0.109-0.096,0.27-0.299,0.395-0.158c0.07,0.785,0.018,1.566,0.07,2.363
		c0.079,0.348,0.082,0.664,0.092,1.033c0.076,1.277,0.113,2.5,0.271,3.736c0.232,1.709,0.398,3.447,0.557,5.191
		c0.071,0.631,0.188,1.242,0.283,1.867c-0.016,0.029-0.074,0.07-0.113,0.031C42.908,57.615,42.619,56.33,42.421,55z M56.515,55.387
		c-0.185,0.889-0.294,1.801-0.571,2.654c-0.027,0.297-0.08,0.578-0.23,0.824c-0.032,0.002-0.061-0.006-0.086-0.027
		c-0.04-0.656,0.253-1.186,0.302-1.801c0.061-0.516,0.067-1.045,0.174-1.541c0.055-0.695,0.079-1.348,0.149-2.035
		c0.07-0.225,0.101-0.457,0.125-0.707c-0.056-0.537,0.121-0.986,0.082-1.516c0.074-0.531,0.18-1.072,0.155-1.623
		c0.053-0.969,0.237-1.891,0.237-2.889c0.098-0.281-0.042-0.662,0.078-0.938c-0.039-0.266-0.018-0.543,0.015-0.803
		c0.104-0.246-0.159-0.736,0.247-0.756c0.146,0.086,0.316,0.195,0.428,0.318c0.015,0.311-0.08,0.615-0.056,0.949
		c0,0.52-0.128,1.023-0.082,1.551c-0.015,0.75-0.046,1.498-0.136,2.227c-0.119,0.867-0.182,1.754-0.34,2.596
		C56.938,53.084,56.652,54.211,56.515,55.387z M58.672,45.893c-0.133,0.555-0.002,1.148-0.106,1.711
		c0.022,0.521-0.175,0.957-0.153,1.473c-0.029,0.793-0.279,1.504-0.309,2.297c-0.137,0.777-0.34,1.539-0.475,2.314
		c-0.208,0.904-0.482,1.783-0.836,2.633c-0.022,0.018-0.06,0.018-0.076-0.014c0.111-0.84,0.252-1.67,0.386-2.506
		c0.235-1.027,0.376-2.088,0.563-3.129c0.105-0.791,0.065-1.637,0.246-2.393c0.139-0.965,0.184-1.955,0.345-2.906
		c0.147-0.084,0.282,0.076,0.433,0.086C58.666,45.611,58.705,45.73,58.672,45.893z M59.256,45.412
		c-0.45-0.357-1.004-0.697-1.314-1.207c-0.125-0.135-0.236-0.297-0.174-0.494c0.066-0.07,0.139-0.156,0.239-0.107
		c0.243,0.039,0.288,0.287,0.552,0.271c0.092,0.051,0.051,0.189,0.135,0.254c0.25,0.18,0.516,0.469,0.74,0.666
		c0.064,0.133,0.157,0.242,0.141,0.412C59.486,45.291,59.416,45.477,59.256,45.412z"/>
	<path d="M42.14,29.113c0.25,0.154,0.538,0.186,0.821,0.245c0.262,0.06,0.578-0.031,0.791,0.172
		c0.092,0.136,0.332,0.247,0.258,0.457l-0.059,0.045c-0.564-0.285-1.342-0.014-1.814-0.526c-0.188-0.047-0.297-0.242-0.346-0.412
		c-0.009-0.06,0.012-0.128,0.047-0.159C41.956,28.946,42.035,29.07,42.14,29.113z"/>
	<path d="M57.354,29.015c-0.041,0.15-0.149,0.286-0.257,0.414c-0.54,0.343-1.21,0.518-1.87,0.437
		c-0.037-0.013-0.039-0.064-0.019-0.089c0.419-0.143,0.876-0.192,1.257-0.426c0.277-0.147,0.562-0.31,0.871-0.351L57.354,29.015z"/>
	<path d="M45.229,33.915c-0.073-0.033-0.784,1.079-0.073,1.693c0.94,0.813,2.008-0.557,1.779-0.888
		c-0.129-0.05-0.407,0.789-1.196,0.611C44.791,35.115,45.301,33.948,45.229,33.915z"/>
	<path d="M52.473,35.355c0.025,0.279,1.131,0.832,1.651,0.051c0.704-1.058-0.306-1.677-0.636-1.449
		c-0.051,0.126,0.609,0.407,0.279,1.117C53.408,35.852,52.459,35.204,52.473,35.355z"/>
	<path d="M111.272,50.461c0,3.152-1.141,5.518-4.146,5.518c-3.172,0-4.209-2.199-4.209-5.535v-4.479
		c0-2.158,0.041-2.512,1.244-2.613l0.496-0.043c0.125-0.08,0.084-0.434-0.041-0.496c-1.016,0.041-1.699,0.063-2.55,0.063
		c-0.829,0-1.534-0.021-2.571-0.063c-0.124,0.063-0.165,0.416-0.041,0.496l0.519,0.043c1.202,0.102,1.244,0.455,1.244,2.613v4.893
		c0,2.465,0.519,3.98,1.617,4.893c1.016,0.869,2.446,1.141,3.876,1.141c1.535,0,3.068-0.541,3.961-1.516
		c1.16-1.242,1.451-3.15,1.451-4.953v-2.344c0-1.16,0-3.545,0.29-4.229c0.124-0.27,0.519-0.457,1.036-0.498l0.498-0.043
		c0.104-0.123,0.124-0.393-0.041-0.496c-0.747,0.041-1.307,0.063-2.178,0.063c-0.809,0-1.575-0.021-2.363-0.063
		c-0.124,0.082-0.166,0.352-0.041,0.496l0.518,0.043c0.519,0.041,0.893,0.186,1.037,0.436c0.352,0.623,0.395,3.006,0.395,4.291
		V50.461z M131.112,48.078c0-0.953-0.042-3.523,0.311-4.271c0.083-0.164,0.498-0.332,1.161-0.434l0.29-0.043
		c0.125-0.123,0.125-0.414-0.041-0.518c-0.705,0.041-1.244,0.063-2.136,0.063c-0.787,0-1.492-0.021-2.446-0.063
		c-0.166,0.063-0.188,0.395-0.041,0.518l0.352,0.043c0.83,0.102,1.162,0.227,1.287,0.414c0.393,0.623,0.414,3.316,0.414,4.291v4.438
		c0,0.436,0,0.766-0.084,0.871h-0.041c-0.975-0.996-1.99-2.158-3.422-3.754l-2.01-2.26c-0.684-0.768-3.131-3.504-3.546-4.561
		c-0.269,0.041-0.622,0.063-0.953,0.063c-0.374,0-1.472,0-2.343-0.063c-0.166,0.082-0.166,0.395-0.041,0.518l0.352,0.043
		c0.498,0.063,0.996,0.207,1.286,0.496c0.435,0.479,0.456,0.912,0.456,1.492v5.994c0,0.992,0.02,3.521-0.27,4.27
		c-0.104,0.227-0.436,0.354-0.912,0.414l-0.561,0.063c-0.124,0.125-0.104,0.414,0.042,0.518c0.726-0.041,1.285-0.063,2.156-0.063
		c0.767,0,1.492,0.021,2.425,0.063c0.145-0.104,0.166-0.354,0.043-0.518l-0.643-0.063c-0.52-0.041-0.935-0.166-1.059-0.395
		c-0.352-0.621-0.373-3.316-0.373-4.289v-4.521c0-0.621,0.021-1.098,0.104-1.348h0.04c0.436,0.457,1.846,2.158,2.406,2.799
		l4.809,5.473c1.805,2.053,2.406,2.779,2.653,3.133c0.229,0,0.353-0.105,0.396-0.229c-0.063-0.539-0.063-3.006-0.063-3.629V48.078z
		 M139.302,53.406c0,2.197-0.043,2.488-1.266,2.633l-0.518,0.063c-0.125,0.125-0.084,0.455,0.04,0.518
		c1.038-0.041,1.743-0.063,2.612-0.063c0.832,0,1.537,0.021,2.572,0.063c0.125-0.063,0.165-0.434,0.041-0.518l-0.517-0.063
		c-1.225-0.145-1.265-0.436-1.265-2.633v-7.379c0-2.199,0.04-2.553,1.265-2.654l0.517-0.043c0.124-0.084,0.084-0.455-0.041-0.518
		c-1.035,0.041-1.74,0.063-2.572,0.063c-0.869,0-1.574-0.021-2.612-0.063c-0.124,0.063-0.165,0.434-0.04,0.518l0.518,0.043
		c1.223,0.102,1.266,0.455,1.266,2.654V53.406z M152.488,54.07c0.353,0.869,0.724,1.887,0.952,2.756
		c0.105,0.043,0.207,0.064,0.313,0.064c0.081,0,0.164-0.021,0.227-0.064c0.352-1.098,1.326-3.504,2.158-5.41l1.119-2.551
		c0.932-2.115,1.741-3.793,2.32-4.768c0.271-0.436,0.58-0.684,1.078-0.725l0.622-0.043c0.104-0.102,0.104-0.436-0.04-0.518
		c-0.684,0.041-1.327,0.063-2.014,0.063c-0.785,0-1.574-0.021-2.155-0.063c-0.146,0.082-0.186,0.395-0.04,0.518l0.373,0.043
		c0.725,0.08,0.932,0.248,0.932,0.393c0,0.146-0.021,0.375-0.186,0.809c-0.353,0.893-1.326,3.234-1.93,4.645
		c-0.477,1.098-1.346,3.234-1.988,4.602c-1.036-2.363-1.992-4.748-2.944-7.152c-0.644-1.574-0.995-2.695-1.036-2.902
		c0.02-0.166,0.186-0.291,0.975-0.393l0.31-0.043c0.146-0.123,0.104-0.436-0.04-0.518c-0.873,0.041-1.597,0.063-2.509,0.063
		c-0.894,0-1.556-0.021-2.158-0.063c-0.164,0.104-0.186,0.395-0.04,0.518l0.373,0.043c0.892,0.102,1.203,0.539,1.68,1.699
		L152.488,54.07z M166.544,53.449c0,2.176-0.105,2.486-1.287,2.59l-0.684,0.063c-0.123,0.125-0.082,0.455,0.041,0.518
		c1.225-0.041,1.93-0.063,2.82-0.063h1.867c1.844,0,3.689,0.021,5.555,0.063c0.27-0.561,0.789-2.156,0.934-2.881
		c-0.084-0.188-0.373-0.25-0.52-0.145c-0.537,1.076-1.098,1.803-1.472,2.01c-0.454,0.229-1.058,0.313-2.653,0.313
		c-1.824,0-2.26-0.229-2.508-0.479c-0.332-0.354-0.394-1.059-0.394-2.156v-2.922c0-0.541,0.062-0.561,0.684-0.561h1.203
		c0.808,0,1.306,0.02,1.596,0.104c0.415,0.104,0.56,0.414,0.644,0.787l0.186,0.811c0.104,0.123,0.457,0.123,0.538-0.021
		c0-0.457-0.081-1.244-0.081-1.99c0-0.789,0.081-1.598,0.081-2.094c-0.081-0.146-0.434-0.146-0.538-0.021l-0.167,0.85
		c-0.103,0.52-0.247,0.643-0.495,0.727c-0.25,0.084-0.894,0.123-1.763,0.123h-1.203c-0.622,0-0.684,0-0.684-0.58v-4.145
		c0-0.789,0-0.832,0.622-0.832h1.49c0.913,0,1.578,0.021,2.014,0.127c1.076,0.27,1.265,0.992,1.574,1.969
		c0.104,0.125,0.436,0.082,0.52-0.043c-0.084-0.912-0.207-2.404-0.332-2.756c-0.25,0.063-1.472,0.063-2.799,0.063h-3.898
		c-0.851,0-1.556-0.021-2.446-0.063c-0.124,0.063-0.167,0.434-0.04,0.518l0.33,0.043c1.223,0.143,1.266,0.455,1.266,2.611V53.449z
		 M181.761,53.449c0,2.176-0.043,2.445-1.244,2.59l-0.518,0.063c-0.123,0.146-0.084,0.455,0.041,0.518
		c0.975-0.041,1.721-0.063,2.592-0.063c0.828,0,1.533,0.021,2.467,0.063c0.123-0.063,0.166-0.414,0.041-0.518l-0.434-0.063
		c-1.203-0.166-1.246-0.414-1.246-2.59v-2.613c0-0.436,0.043-0.457,0.975-0.457c0.83,0,1.162,0.209,1.471,0.664
		c0.645,0.934,1.494,2.363,2.033,3.129c1.471,2.094,2.529,2.613,4.291,2.613c0.396,0,0.727-0.041,0.912-0.102
		c0.105-0.084,0.084-0.25-0.021-0.291c-0.559-0.043-1.076-0.27-1.428-0.582c-1.41-1.18-2.508-2.838-4.17-5.514
		c-0.102-0.166-0.207-0.373-0.102-0.498c1.037-0.414,2.592-1.492,2.592-3.463c0-1.451-0.727-2.385-1.723-2.9
		c-0.953-0.52-2.176-0.623-3.461-0.623c-2.031,0-3.463,0.063-4.623,0.166c-0.166,0.082-0.166,0.414-0.021,0.518l0.664,0.084
		c0.852,0.104,0.912,0.455,0.912,2.426V53.449z M183.46,44.119c0-0.582,0.063-0.666,1.348-0.666c2.301,0,3.318,1.557,3.318,3.195
		c0,1.41-0.477,2.135-1.035,2.57c-0.604,0.457-1.393,0.537-2.137,0.537c-1.059,0-1.367-0.039-1.432-0.102
		c-0.063-0.084-0.063-0.313-0.063-0.684V44.119z M204.649,53.053c0-1.969-1.287-3.17-2.592-3.98l-1.66-1.035
		c-0.768-0.477-1.76-1.348-1.76-2.551c0-0.953,0.434-2.301,2.465-2.301c1.992,0,2.551,1.348,2.82,2.344
		c0.105,0.123,0.436,0.061,0.52-0.063c0-0.871-0.189-2.031-0.375-2.529c-0.166,0-0.455-0.043-0.727-0.125
		c-0.537-0.145-1.283-0.271-1.926-0.271c-2.697,0-4.23,1.6-4.23,3.566c0,1.701,1.203,2.883,2.238,3.568l1.971,1.283
		c1.514,0.975,1.701,1.992,1.701,2.904c0,1.242-0.852,2.385-2.592,2.385c-2.406,0-3.256-2.033-3.566-3.09
		c-0.084-0.125-0.395-0.084-0.498,0.063c0.041,0.973,0.313,2.445,0.561,2.902c0.393,0.227,1.492,0.768,3.234,0.768
		C202.927,56.891,204.649,55.334,204.649,53.053z M211.489,53.406c0,2.197-0.039,2.488-1.264,2.633l-0.518,0.063
		c-0.125,0.125-0.082,0.455,0.041,0.518c1.035-0.041,1.74-0.063,2.613-0.063c0.828,0,1.533,0.021,2.57,0.063
		c0.123-0.063,0.166-0.434,0.039-0.518l-0.516-0.063c-1.225-0.145-1.266-0.436-1.266-2.633v-7.379c0-2.199,0.041-2.553,1.266-2.654
		l0.516-0.043c0.127-0.084,0.084-0.455-0.039-0.518c-1.037,0.041-1.742,0.063-2.57,0.063c-0.873,0-1.578-0.021-2.613-0.063
		c-0.123,0.063-0.166,0.434-0.041,0.518l0.518,0.043c1.225,0.102,1.264,0.455,1.264,2.654V53.406z M226.585,44.221
		c0-0.684-0.021-0.705,0.6-0.705h1.473c1.141,0,1.926,0.168,2.404,0.52c0.311,0.229,0.455,0.996,0.518,1.512
		c0.105,0.127,0.457,0.127,0.541-0.039c-0.064-0.623,0.08-2.301,0.309-3.152c-0.039-0.082-0.27-0.104-0.373-0.061
		c-0.311,0.537-0.496,0.58-1.615,0.58h-8.398c-0.953,0-1.637,0.02-1.76-0.643c-0.064-0.063-0.334-0.043-0.396,0
		c-0.145,0.828-0.455,2.156-0.787,3.09c0.082,0.164,0.373,0.268,0.539,0.145c0.227-0.52,0.434-0.975,0.932-1.432
		c0.52-0.477,1.66-0.52,2.551-0.52h1.143c0.621,0,0.621,0.021,0.621,0.664v9.27c0,2.176-0.105,2.486-1.287,2.59l-0.744,0.063
		c-0.168,0.104-0.125,0.455,0,0.518c1.326-0.041,2.053-0.063,2.881-0.063c0.83,0,1.535,0.021,2.715,0.063
		c0.125-0.063,0.168-0.434,0.041-0.518l-0.662-0.063c-1.203-0.104-1.242-0.414-1.242-2.59V44.221z M238.401,53.449
		c0,2.176-0.105,2.486-1.287,2.59l-0.684,0.063c-0.123,0.125-0.084,0.455,0.041,0.518c1.225-0.041,1.93-0.063,2.82-0.063h1.865
		c1.846,0,3.691,0.021,5.557,0.063c0.27-0.561,0.787-2.156,0.934-2.881c-0.084-0.188-0.375-0.25-0.52-0.145
		c-0.539,1.076-1.098,1.803-1.473,2.01c-0.455,0.229-1.057,0.313-2.652,0.313c-1.824,0-2.262-0.229-2.508-0.479
		c-0.332-0.354-0.396-1.059-0.396-2.156v-2.922c0-0.541,0.064-0.561,0.686-0.561h1.203c0.809,0,1.307,0.02,1.596,0.104
		c0.416,0.104,0.561,0.414,0.645,0.787l0.186,0.811c0.102,0.123,0.455,0.123,0.537-0.021c0-0.457-0.082-1.244-0.082-1.99
		c0-0.789,0.082-1.598,0.082-2.094c-0.082-0.146-0.436-0.146-0.537-0.021l-0.168,0.85c-0.102,0.52-0.246,0.643-0.496,0.727
		c-0.248,0.084-0.893,0.123-1.762,0.123h-1.203c-0.621,0-0.686,0-0.686-0.58v-4.145c0-0.789,0-0.832,0.625-0.832h1.49
		c0.912,0,1.576,0.021,2.014,0.127c1.076,0.27,1.264,0.992,1.574,1.969c0.104,0.125,0.436,0.082,0.52-0.043
		c-0.084-0.912-0.209-2.404-0.334-2.756c-0.248,0.063-1.473,0.063-2.799,0.063h-3.896c-0.852,0-1.557-0.021-2.447-0.063
		c-0.123,0.063-0.166,0.434-0.039,0.518l0.33,0.043c1.223,0.143,1.266,0.455,1.266,2.611V53.449z M258.593,44.221
		c0-0.684-0.02-0.705,0.602-0.705h1.473c1.141,0,1.926,0.168,2.406,0.52c0.309,0.229,0.453,0.996,0.516,1.512
		c0.105,0.127,0.457,0.127,0.539-0.039c-0.063-0.623,0.082-2.301,0.313-3.152c-0.041-0.082-0.27-0.104-0.375-0.061
		c-0.309,0.537-0.498,0.58-1.617,0.58h-8.396c-0.953,0-1.637,0.02-1.762-0.643c-0.063-0.063-0.332-0.043-0.393,0
		c-0.146,0.828-0.455,2.156-0.789,3.09c0.084,0.164,0.373,0.268,0.541,0.145c0.227-0.52,0.434-0.975,0.932-1.432
		c0.518-0.477,1.66-0.52,2.551-0.52h1.141c0.621,0,0.621,0.021,0.621,0.664v9.27c0,2.176-0.105,2.486-1.285,2.59l-0.746,0.063
		c-0.168,0.104-0.127,0.455,0,0.518c1.326-0.041,2.051-0.063,2.881-0.063s1.535,0.021,2.717,0.063
		c0.123-0.063,0.164-0.434,0.039-0.518l-0.662-0.063c-1.201-0.104-1.244-0.414-1.244-2.59V44.221z M270.411,53.449
		c0,2.176-0.105,2.486-1.287,2.59l-0.684,0.063c-0.125,0.125-0.082,0.455,0.041,0.518c1.225-0.041,1.93-0.063,2.82-0.063h1.865
		c1.846,0,3.691,0.021,5.557,0.063c0.27-0.561,0.789-2.156,0.934-2.881c-0.084-0.188-0.373-0.25-0.52-0.145
		c-0.537,1.076-1.098,1.803-1.471,2.01c-0.455,0.229-1.059,0.313-2.654,0.313c-1.824,0-2.26-0.229-2.508-0.479
		c-0.334-0.354-0.396-1.059-0.396-2.156v-2.922c0-0.541,0.063-0.561,0.688-0.561h1.199c0.811,0,1.309,0.02,1.6,0.104
		c0.414,0.104,0.559,0.414,0.641,0.787l0.188,0.811c0.102,0.123,0.455,0.123,0.539-0.021c0-0.457-0.084-1.244-0.084-1.99
		c0-0.789,0.084-1.598,0.084-2.094c-0.084-0.146-0.438-0.146-0.539-0.021l-0.166,0.85c-0.104,0.52-0.248,0.643-0.498,0.727
		c-0.248,0.084-0.891,0.123-1.764,0.123h-1.199c-0.625,0-0.688,0-0.688-0.58v-4.145c0-0.789,0-0.832,0.623-0.832h1.492
		c0.912,0,1.578,0.021,2.012,0.127c1.078,0.27,1.264,0.992,1.576,1.969c0.102,0.125,0.436,0.082,0.52-0.043
		c-0.084-0.912-0.207-2.404-0.334-2.756c-0.248,0.063-1.473,0.063-2.799,0.063h-3.896c-0.85,0-1.555-0.021-2.445-0.063
		c-0.125,0.063-0.168,0.434-0.043,0.518l0.332,0.043c1.223,0.143,1.266,0.455,1.266,2.611V53.449z M290.603,44.221
		c0-0.684-0.02-0.705,0.602-0.705h1.473c1.141,0,1.928,0.168,2.406,0.52c0.309,0.229,0.455,0.996,0.516,1.512
		c0.105,0.127,0.459,0.127,0.541-0.039c-0.064-0.623,0.082-2.301,0.311-3.152c-0.041-0.082-0.27-0.104-0.375-0.061
		c-0.309,0.537-0.494,0.58-1.613,0.58h-8.4c-0.951,0-1.639,0.02-1.762-0.643c-0.063-0.063-0.332-0.043-0.393,0
		c-0.146,0.828-0.457,2.156-0.789,3.09c0.084,0.164,0.375,0.268,0.539,0.145c0.229-0.52,0.436-0.975,0.934-1.432
		c0.52-0.477,1.658-0.52,2.551-0.52h1.139c0.623,0,0.623,0.021,0.623,0.664v9.27c0,2.176-0.104,2.486-1.285,2.59l-0.746,0.063
		c-0.166,0.104-0.127,0.455,0,0.518c1.326-0.041,2.051-0.063,2.881-0.063s1.535,0.021,2.717,0.063
		c0.123-0.063,0.166-0.434,0.041-0.518l-0.662-0.063c-1.203-0.104-1.246-0.414-1.246-2.59V44.221z M310.712,53.406
		c0,2.197-0.039,2.488-1.264,2.633l-0.518,0.063c-0.123,0.125-0.084,0.455,0.041,0.518c1.035-0.041,1.74-0.063,2.613-0.063
		c0.828,0,1.533,0.021,2.57,0.063c0.123-0.063,0.166-0.434,0.043-0.518l-0.52-0.063c-1.225-0.145-1.266-0.436-1.266-2.633v-7.379
		c0-2.199,0.041-2.553,1.266-2.654l0.52-0.043c0.123-0.084,0.08-0.455-0.043-0.518c-1.037,0.041-1.742,0.063-2.57,0.063
		c-0.873,0-1.578-0.021-2.613-0.063c-0.125,0.063-0.164,0.434-0.041,0.518l0.518,0.043c1.225,0.102,1.264,0.455,1.264,2.654V53.406z
		 M329.122,53.449c0,2.176-0.041,2.402-1.139,2.59l-0.373,0.063c-0.125,0.125-0.084,0.455,0.039,0.518
		c0.77-0.02,1.473-0.063,2.385-0.063c0.873,0,1.887,0.063,2.49,0.063c3.732,0,5.514-1.615,5.514-4.021
		c0-2.219-1.658-3.256-2.777-3.463c-0.229-0.041-0.396-0.102-0.396-0.309c1.246-0.582,2.115-1.35,2.115-2.842
		c0-1.328-0.684-2.156-1.574-2.592c-0.934-0.477-2.176-0.58-3.484-0.58c-1.928,0-3.336,0.063-4.457,0.166
		c-0.166,0.082-0.186,0.395-0.021,0.518l0.666,0.063c0.934,0.084,1.014,0.477,1.014,2.01V53.449z M330.823,50.068
		c0-0.414,0.084-0.539,1.203-0.539c3.297,0,4.125,1.906,4.125,3.545c0,2.072-1.41,2.904-3.254,2.904
		c-0.623,0-1.246-0.105-1.639-0.582c-0.393-0.457-0.436-1.514-0.436-2.26V50.068z M330.823,44.119c0-0.375,0.084-0.477,0.291-0.539
		c0.186-0.084,0.498-0.127,0.951-0.127c1.578,0,3.09,0.768,3.09,2.799c0,1.951-1.139,2.574-3.254,2.656
		c-1.057,0.041-1.078,0-1.078-0.58V44.119z M344.776,53.449c0,2.176-0.105,2.486-1.287,2.59l-0.684,0.063
		c-0.123,0.125-0.082,0.455,0.041,0.518c1.225-0.041,1.93-0.063,2.82-0.063h1.867c1.844,0,3.689,0.021,5.555,0.063
		c0.27-0.561,0.789-2.156,0.934-2.881c-0.084-0.188-0.373-0.25-0.52-0.145c-0.537,1.076-1.098,1.803-1.471,2.01
		c-0.455,0.229-1.059,0.313-2.654,0.313c-1.824,0-2.26-0.229-2.508-0.479c-0.332-0.354-0.393-1.059-0.393-2.156v-2.922
		c0-0.541,0.061-0.561,0.684-0.561h1.201c0.809,0,1.307,0.02,1.598,0.104c0.414,0.104,0.559,0.414,0.643,0.787l0.186,0.811
		c0.105,0.123,0.457,0.123,0.539-0.021c0-0.457-0.082-1.244-0.082-1.99c0-0.789,0.082-1.598,0.082-2.094
		c-0.082-0.146-0.434-0.146-0.539-0.021l-0.166,0.85c-0.104,0.52-0.248,0.643-0.496,0.727c-0.25,0.084-0.893,0.123-1.764,0.123
		h-1.201c-0.623,0-0.684,0-0.684-0.58v-4.145c0-0.789,0-0.832,0.621-0.832h1.49c0.912,0,1.578,0.021,2.014,0.127
		c1.076,0.27,1.264,0.992,1.574,1.969c0.105,0.125,0.436,0.082,0.52-0.043c-0.084-0.912-0.207-2.404-0.334-2.756
		c-0.248,0.063-1.469,0.063-2.797,0.063h-3.898c-0.85,0-1.555-0.021-2.445-0.063c-0.125,0.063-0.168,0.434-0.041,0.518l0.33,0.043
		c1.225,0.143,1.266,0.455,1.266,2.611V53.449z M359.991,53.449c0,2.176-0.039,2.445-1.242,2.59l-0.518,0.063
		c-0.127,0.146-0.084,0.455,0.041,0.518c0.975-0.041,1.719-0.063,2.592-0.063c0.828,0,1.533,0.021,2.467,0.063
		c0.123-0.063,0.164-0.414,0.041-0.518l-0.436-0.063c-1.201-0.166-1.244-0.414-1.244-2.59v-2.613c0-0.436,0.043-0.457,0.975-0.457
		c0.828,0,1.162,0.209,1.471,0.664c0.645,0.934,1.494,2.363,2.033,3.129c1.471,2.094,2.529,2.613,4.291,2.613
		c0.395,0,0.727-0.041,0.912-0.102c0.105-0.084,0.084-0.25-0.021-0.291c-0.559-0.043-1.076-0.27-1.428-0.582
		c-1.41-1.18-2.508-2.838-4.168-5.514c-0.104-0.166-0.209-0.373-0.104-0.498c1.037-0.414,2.592-1.492,2.592-3.463
		c0-1.451-0.727-2.385-1.723-2.9c-0.953-0.52-2.176-0.623-3.461-0.623c-2.031,0-3.463,0.063-4.623,0.166
		c-0.166,0.082-0.166,0.414-0.021,0.518l0.662,0.084c0.852,0.104,0.912,0.455,0.912,2.426V53.449z M361.692,44.119
		c0-0.582,0.063-0.666,1.348-0.666c2.301,0,3.318,1.557,3.318,3.195c0,1.41-0.479,2.135-1.039,2.57
		c-0.6,0.457-1.389,0.537-2.133,0.537c-1.059,0-1.371-0.039-1.432-0.102c-0.063-0.084-0.063-0.313-0.063-0.684V44.119z
		 M386.509,53.281c0-1.057,0.021-1.639,0.891-1.74l0.332-0.041c0.145-0.127,0.127-0.436-0.02-0.52
		c-0.684,0.041-1.389,0.063-2.197,0.063c-1.223,0-2.363-0.021-2.967-0.063c-0.143,0.063-0.164,0.436,0,0.52l0.912,0.102
		c1.287,0.146,1.35,0.27,1.35,2.012v0.83c0,0.662-0.104,1.037-0.209,1.182c-0.229,0.354-0.994,0.623-2.279,0.623
		c-4.168,0-6.221-3.133-6.221-7.113c0-3.107,1.762-5.971,5.785-5.971c2.115,0,3.67,0.705,4.25,2.943
		c0.125,0.127,0.498,0.105,0.559-0.063c-0.186-1.242-0.309-2.322-0.309-3.006c-0.25,0.043-0.893-0.102-1.287-0.186
		c-0.352-0.084-1.449-0.313-2.631-0.313c-3.133,0-5.184,0.975-6.574,2.428c-1.285,1.367-1.865,3.152-1.865,4.914
		c0,1.824,0.664,3.461,1.908,4.705c1.596,1.617,3.855,2.303,6.324,2.303c1.119,0,2.609-0.25,3.711-0.541
		c0.393-0.102,0.766-0.186,1.014-0.186c0.084-0.063,0.084-0.186,0.021-0.248c-0.373-0.145-0.498-0.643-0.498-1.473V53.281z
		 M394.325,53.449c0,2.176-0.104,2.486-1.285,2.59l-0.686,0.063c-0.123,0.125-0.08,0.455,0.043,0.518
		c1.223-0.041,1.928-0.063,2.82-0.063h1.865c1.846,0,3.689,0.021,5.557,0.063c0.27-0.561,0.785-2.156,0.932-2.881
		c-0.084-0.188-0.371-0.25-0.518-0.145c-0.541,1.076-1.1,1.803-1.473,2.01c-0.457,0.229-1.057,0.313-2.652,0.313
		c-1.824,0-2.26-0.229-2.51-0.479c-0.332-0.354-0.395-1.059-0.395-2.156v-2.922c0-0.541,0.063-0.561,0.684-0.561h1.203
		c0.811,0,1.305,0.02,1.596,0.104c0.414,0.104,0.561,0.414,0.645,0.787l0.186,0.811c0.104,0.123,0.457,0.123,0.539-0.021
		c0-0.457-0.082-1.244-0.082-1.99c0-0.789,0.082-1.598,0.082-2.094c-0.082-0.146-0.436-0.146-0.539-0.021l-0.166,0.85
		c-0.104,0.52-0.25,0.643-0.496,0.727c-0.25,0.084-0.891,0.123-1.764,0.123h-1.203c-0.621,0-0.684,0-0.684-0.58v-4.145
		c0-0.789,0-0.832,0.623-0.832h1.492c0.912,0,1.574,0.021,2.012,0.127c1.078,0.27,1.264,0.992,1.576,1.969
		c0.102,0.125,0.434,0.082,0.516-0.043c-0.082-0.912-0.207-2.404-0.33-2.756c-0.248,0.063-1.473,0.063-2.799,0.063h-3.896
		c-0.85,0-1.555-0.021-2.449-0.063c-0.123,0.063-0.164,0.434-0.041,0.518l0.332,0.043c1.225,0.143,1.266,0.455,1.266,2.611V53.449z
		 M420.696,48.078c0-0.953-0.043-3.523,0.311-4.271c0.082-0.164,0.498-0.332,1.162-0.434l0.291-0.043
		c0.123-0.123,0.123-0.414-0.043-0.518c-0.705,0.041-1.244,0.063-2.135,0.063c-0.789,0-1.494-0.021-2.445-0.063
		c-0.168,0.063-0.189,0.395-0.043,0.518l0.352,0.043c0.828,0.102,1.162,0.227,1.287,0.414c0.393,0.623,0.414,3.316,0.414,4.291
		v4.438c0,0.436,0,0.766-0.084,0.871h-0.041c-0.973-0.996-1.99-2.158-3.42-3.754l-2.012-2.26c-0.684-0.768-3.131-3.504-3.545-4.561
		c-0.27,0.041-0.621,0.063-0.955,0.063c-0.371,0-1.473,0-2.342-0.063c-0.166,0.082-0.166,0.395-0.043,0.518l0.354,0.043
		c0.498,0.063,0.994,0.207,1.285,0.496c0.436,0.479,0.457,0.912,0.457,1.492v5.994c0,0.992,0.02,3.521-0.271,4.27
		c-0.102,0.227-0.434,0.354-0.912,0.414l-0.559,0.063c-0.125,0.125-0.104,0.414,0.043,0.518c0.723-0.041,1.285-0.063,2.154-0.063
		c0.768,0,1.494,0.021,2.426,0.063c0.145-0.104,0.166-0.354,0.043-0.518l-0.645-0.063c-0.518-0.041-0.934-0.166-1.057-0.395
		c-0.352-0.621-0.373-3.316-0.373-4.289v-4.521c0-0.621,0.021-1.098,0.104-1.348h0.041c0.436,0.457,1.846,2.158,2.406,2.799
		l4.809,5.473c1.805,2.053,2.406,2.779,2.656,3.133c0.227,0,0.352-0.105,0.393-0.229c-0.063-0.539-0.063-3.006-0.063-3.629V48.078z"
		/>
</g>
<rect fill="none" width="439.37" height="99.213"/>
</svg>
